<svg width="728" height="300" viewBox="0 0 728 300" fill="none" xmlns="http://www.w3.org/2000/svg">
<path d="M85.8547 90.1173C76.3626 139.59 68.3917 180.791 68.2092 181.587C67.9658 182.382 66.6272 173.315 65.106 161.464C63.6457 149.692 62.307 139.988 62.1245 139.988C61.942 139.988 59.5689 146.749 56.8308 154.941L51.9023 169.815L25.9207 170.054C0.486774 170.213 0 170.292 0 171.804C0 173.394 0.365082 173.394 26.8334 173.235L53.7277 172.997L56.1007 165.838C57.4393 161.861 59.0822 157.089 59.7515 155.1L61.0293 151.521L63.0372 166.634C64.1324 174.906 65.3494 184.212 65.7145 187.155C66.3838 191.927 66.5663 192.563 67.7224 192.325C68.8176 192.086 70.5822 183.655 86.159 102.605C95.5902 53.3704 103.5 13.6806 103.622 14.317C103.805 14.9533 104.23 24.8161 104.596 36.1901C105.021 47.5641 105.873 70.0736 106.482 86.2995C107.942 121.853 110.802 195.983 112.871 250.149C114.757 299.543 114.757 299.861 116.217 299.861C116.826 299.861 117.434 299.145 117.617 298.031C117.799 297.077 121.45 263.989 125.709 224.458C129.969 185.007 133.619 152.953 133.863 153.271C134.106 153.589 135.627 158.282 137.27 163.611L140.191 173.235L145.728 173.792C148.709 174.11 161.852 174.19 174.873 174.031L198.543 173.792L202.194 162.736C204.262 156.691 206.027 152.157 206.21 152.794C206.392 153.43 207.609 162.498 208.948 172.997C211.26 190.575 211.564 192.086 212.72 192.325C213.937 192.563 214.911 187.711 231.157 102.843C240.588 53.5295 248.437 12.9648 248.62 12.8057C248.741 12.6466 248.863 13.7602 248.863 15.351C248.863 16.9417 249.532 35.5538 250.384 56.6315C252.879 119.785 253.062 124.319 254.035 148.737C254.522 161.623 255.617 190.097 256.469 211.971C257.321 233.844 258.416 261.523 258.903 273.534C259.39 285.544 259.816 296.361 259.816 297.634C259.816 299.384 260.059 299.861 261.215 299.861C262.554 299.861 262.675 299.224 270.403 227.242C274.662 187.393 278.313 154.146 278.495 153.51C278.617 152.873 280.138 156.771 281.842 162.259C283.485 167.747 285.128 172.599 285.432 173.076C286.04 174.031 330.459 174.667 339.586 173.792L345.427 173.235L348.956 162.498C350.964 156.612 352.668 152.237 352.85 152.873C353.033 153.43 354.25 162.498 355.588 172.997C359.482 202.744 357.657 208.073 375.972 112.388C384.43 68.3237 392.218 27.759 393.252 22.2708L395.199 12.3285L395.625 21.4754C395.869 26.4864 396.599 45.0984 397.329 62.8356C397.998 80.5727 398.85 101.65 399.154 109.763C399.52 117.876 400.615 145.953 401.588 172.201C402.623 198.449 404.144 236.946 404.935 257.705C405.787 278.465 406.456 296.52 406.456 297.713C406.456 299.384 406.76 299.861 407.856 299.861C409.194 299.861 409.316 299.304 416.983 227.719C421.303 187.95 424.953 154.782 425.136 153.987C425.379 152.953 426.475 155.816 428.665 162.736L431.829 172.997L434.811 173.553C439.983 174.508 489.755 174.11 490.303 173.076C490.607 172.599 492.311 167.668 494.136 162.1C495.962 156.532 497.544 151.919 497.726 151.919C497.909 151.919 499.126 160.43 500.403 170.849C503.263 193.597 503.081 192.484 504.48 192.484C505.21 192.484 505.758 191.609 506.184 189.779C506.488 188.268 514.216 147.942 523.403 100.219C538.554 21.1573 540.075 13.7602 540.441 17.2599C540.684 19.3279 541.475 36.6673 542.144 55.6771C542.874 74.6868 543.665 96.719 544.031 104.593C544.7 121.535 547.56 194.393 549.75 252.933C550.602 275.92 551.454 295.884 551.636 297.316C552.062 300.895 554.009 300.895 554.557 297.316C554.74 295.884 558.33 262.875 562.528 223.901C566.726 185.007 570.255 153.032 570.377 152.953C570.499 152.794 572.02 157.327 573.845 163.054L577.131 173.474L646.983 173.394H716.835L718.843 176.178C721.886 180.394 725.475 179.837 727.423 174.906C729.187 170.531 726.692 165.44 722.859 165.44C720.729 165.44 717.991 167.668 717.991 169.417C717.991 169.895 692.497 170.213 648.444 170.213H578.835L574.697 156.85C572.446 149.533 570.255 142.692 569.83 141.658C569.099 139.749 569.099 139.749 568.734 142.454C568.369 145.079 556.2 257.308 554.8 271.227C553.949 279.578 553.097 281.169 553.097 274.408C553.097 270.113 546.525 98.787 543.665 29.4293C543.179 16.9417 542.753 5.24955 542.753 3.34062C542.753 0.397692 542.57 -1.74319e-06 541.353 -1.74319e-06C540.075 -1.74319e-06 539.771 0.715843 538.372 8.11294C537.52 12.6466 529.61 53.6886 520.848 99.4233C512.086 145.158 504.845 182.621 504.784 182.78C504.663 182.859 503.385 173.315 501.925 161.464C500.464 149.692 499.126 139.988 498.943 139.988C498.761 139.988 496.388 146.749 493.649 154.941L488.66 169.815H461.218H433.715L428.969 154.703C426.353 146.351 424.041 140.147 423.858 140.783C423.737 141.42 420.39 171.644 416.496 207.994C412.602 244.263 409.194 275.442 408.951 277.192C408.464 280.056 408.403 280.135 408.342 277.988C408.281 276.636 406.517 230.344 404.326 174.985C402.136 119.626 399.824 59.8926 399.154 42.1555C397.633 0.795381 397.572 -1.74319e-06 396.112 -1.74319e-06C395.321 -1.74319e-06 394.774 0.874909 394.408 2.54522C394.104 3.97692 386.255 44.9393 376.885 93.617C367.575 142.295 359.726 181.825 359.543 181.507C359.361 181.189 358.144 172.36 356.866 161.861C355.588 151.362 354.371 142.056 354.128 141.261C353.824 140.147 352.363 143.806 348.591 154.941L343.48 170.213L315.308 169.974L287.075 169.815L282.329 154.703C279.712 146.431 277.4 140.147 277.218 140.783C277.035 141.42 273.871 170.451 270.159 205.21C266.448 239.968 263.04 271.147 262.614 274.408L261.884 280.374L261.458 270.829C261.093 262.796 253.974 80.5727 251.905 26.6454C250.932 1.51123 250.81 -1.74319e-06 249.472 -1.74319e-06C248.681 -1.74319e-06 248.133 0.874907 247.707 2.94291C247.342 4.61322 239.432 45.5756 230.183 94.0147C220.874 142.454 213.085 181.825 212.903 181.507C212.72 181.189 211.503 172.36 210.225 161.861C208.948 151.362 207.731 142.056 207.487 141.261C207.183 140.147 205.723 143.806 201.95 154.941L196.839 170.213H169.458H142.077L138.183 157.646C135.992 150.805 133.863 143.965 133.437 142.454C132.95 141.022 132.463 139.988 132.342 140.147C132.22 140.306 128.813 170.849 124.797 207.994C120.781 245.218 117.434 276.476 117.252 277.59C116.765 281.885 116.217 270.988 114.392 222.311C113.357 194.711 111.958 158.918 111.349 142.772C110.68 126.546 109.585 98.8666 108.916 81.1294C108.246 63.3923 107.273 39.0535 106.786 26.9636C106.299 14.8737 105.873 3.89739 105.873 2.46569C105.873 0.397688 105.63 -1.74319e-06 104.535 -1.74319e-06C103.196 -1.74319e-06 102.405 3.89739 85.8547 90.1173Z" fill="#00AEEF" fill-opacity="0.25"/>
</svg>
