<svg width="87" height="87" viewBox="0 0 87 87" fill="none" xmlns="http://www.w3.org/2000/svg">
<path d="M61.9844 0.84375H13.6406C12.5103 0.847126 11.4273 1.29762 10.6281 2.09685C9.82887 2.89608 9.37838 3.9791 9.375 5.10938V33.5469H7.95312C6.0676 33.5469 4.2593 34.2959 2.92604 35.6292C1.59277 36.9624 0.84375 38.7707 0.84375 40.6562V46.4717L3.6875 76.2031V84.7344C3.6875 85.1115 3.8373 85.4731 4.10396 85.7398C4.37061 86.0064 4.73227 86.1562 5.10938 86.1562H36.3906C36.7677 86.1562 37.1294 86.0064 37.396 85.7398C37.6627 85.4731 37.8125 85.1115 37.8125 84.7344V76.6297L42.8459 69.0938H61.9844C63.1147 69.0904 64.1977 68.6399 64.9969 67.8406C65.7961 67.0414 66.2466 65.9584 66.25 64.8281V5.10938C66.2466 3.9791 65.7961 2.89608 64.9969 2.09685C64.1977 1.29762 63.1147 0.847126 61.9844 0.84375V0.84375ZM34.9688 83.3125H6.53125V77.625H34.9688V83.3125ZM35.6228 74.7812H6.40328L3.6875 46.3438V40.6562C3.69088 39.526 4.14137 38.443 4.9406 37.6437C5.73983 36.8445 6.82285 36.394 7.95312 36.3906H17.9062C19.0376 36.3906 20.1225 36.84 20.9225 37.64C21.7225 38.44 22.1719 39.5249 22.1719 40.6562C22.1719 41.7876 21.7225 42.8725 20.9225 43.6725C20.1225 44.4725 19.0376 44.9219 17.9062 44.9219H10.7969C10.4198 44.9219 10.0581 45.0717 9.79146 45.3383C9.5248 45.605 9.375 45.9666 9.375 46.3438V64.8281C9.37838 65.9584 9.82887 67.0414 10.6281 67.8406C11.4273 68.6399 12.5103 69.0904 13.6406 69.0938H39.4192L35.6228 74.7812ZM63.4062 64.8281C63.4062 65.2052 63.2564 65.5669 62.9898 65.8335C62.7231 66.1002 62.3615 66.25 61.9844 66.25H13.6406C13.2635 66.25 12.9019 66.1002 12.6352 65.8335C12.3686 65.5669 12.2188 65.2052 12.2188 64.8281V47.7656H17.9062C19.544 47.7614 21.1304 47.1938 22.3991 46.1582C23.6678 45.1225 24.5415 43.6819 24.8734 42.0781H53.4531V39.2344H24.8734C24.5415 37.6306 23.6678 36.19 22.3991 35.1543C21.1304 34.1187 19.544 33.5511 17.9062 33.5469H12.2188V5.10938C12.2188 4.73227 12.3686 4.37061 12.6352 4.10396C12.9019 3.8373 13.2635 3.6875 13.6406 3.6875H61.9844C62.3615 3.6875 62.7231 3.8373 62.9898 4.10396C63.2564 4.37061 63.4062 4.73227 63.4062 5.10938V64.8281Z" fill="#D0F0FC"/>
<path d="M29.2812 22.1719H33.5469V26.4375C33.5469 26.8146 33.6967 27.1763 33.9633 27.4429C34.23 27.7096 34.5916 27.8594 34.9688 27.8594H40.6562C41.0334 27.8594 41.395 27.7096 41.6617 27.4429C41.9283 27.1763 42.0781 26.8146 42.0781 26.4375V22.1719H46.3438C46.7209 22.1719 47.0825 22.0221 47.3492 21.7554C47.6158 21.4888 47.7656 21.1271 47.7656 20.75V15.0625C47.7656 14.6854 47.6158 14.3237 47.3492 14.0571C47.0825 13.7904 46.7209 13.6406 46.3438 13.6406H42.0781V9.375C42.0781 8.9979 41.9283 8.63624 41.6617 8.36958C41.395 8.10293 41.0334 7.95312 40.6562 7.95312H34.9688C34.5916 7.95312 34.23 8.10293 33.9633 8.36958C33.6967 8.63624 33.5469 8.9979 33.5469 9.375V13.6406H29.2812C28.9041 13.6406 28.5425 13.7904 28.2758 14.0571C28.0092 14.3237 27.8594 14.6854 27.8594 15.0625V20.75C27.8594 21.1271 28.0092 21.4888 28.2758 21.7554C28.5425 22.0221 28.9041 22.1719 29.2812 22.1719ZM30.7031 16.4844H34.9688C35.3459 16.4844 35.7075 16.3346 35.9742 16.0679C36.2408 15.8013 36.3906 15.4396 36.3906 15.0625V10.7969H39.2344V15.0625C39.2344 15.4396 39.3842 15.8013 39.6508 16.0679C39.9175 16.3346 40.2791 16.4844 40.6562 16.4844H44.9219V19.3281H40.6562C40.2791 19.3281 39.9175 19.4779 39.6508 19.7446C39.3842 20.0112 39.2344 20.3729 39.2344 20.75V25.0156H36.3906V20.75C36.3906 20.3729 36.2408 20.0112 35.9742 19.7446C35.7075 19.4779 35.3459 19.3281 34.9688 19.3281H30.7031V16.4844Z" fill="#D0F0FC"/>
<path d="M84.7344 19.3282H80.2697C79.925 17.9889 79.1035 16.8215 77.9592 16.0451C76.8149 15.2686 75.4265 14.9365 74.0547 15.111C72.6829 15.2855 71.422 15.9547 70.5086 16.993C69.5952 18.0312 69.0921 19.3672 69.0938 20.75V42.0782C69.0938 42.4553 69.2436 42.8169 69.5102 43.0836C69.7769 43.3502 70.1385 43.5 70.5156 43.5V76.2032C70.5184 76.3574 70.5423 76.5105 70.5867 76.6582L73.4305 85.1894C73.524 85.4739 73.7049 85.7216 73.9475 85.8972C74.19 86.0728 74.4818 86.1673 74.7813 86.1673C75.0807 86.1673 75.3725 86.0728 75.615 85.8972C75.8576 85.7216 76.0385 85.4739 76.132 85.1894L78.9758 76.6582C79.0202 76.5105 79.0441 76.3574 79.0469 76.2032V43.5C79.424 43.5 79.7856 43.3502 80.0523 43.0836C80.3189 42.8169 80.4688 42.4553 80.4688 42.0782V22.1719H83.3125V43.5H86.1562V20.75C86.1562 20.3729 86.0064 20.0113 85.7398 19.7446C85.4731 19.478 85.1115 19.3282 84.7344 19.3282ZM76.2031 75.9757L74.7813 80.2413L73.3594 75.9757V43.5H76.2031V75.9757ZM77.625 40.6563H71.9375V20.75C71.9375 19.9958 72.2371 19.2725 72.7704 18.7392C73.3037 18.2059 74.027 17.9063 74.7813 17.9063C75.5355 17.9063 76.2588 18.2059 76.7921 18.7392C77.3254 19.2725 77.625 19.9958 77.625 20.75V40.6563Z" fill="#D0F0FC"/>
<path d="M59.1406 46.3438H42.0781C41.701 46.3438 41.3394 46.4936 41.0727 46.7602C40.8061 47.0269 40.6562 47.3885 40.6562 47.7656V61.9844C40.6562 62.3615 40.8061 62.7231 41.0727 62.9898C41.3394 63.2564 41.701 63.4062 42.0781 63.4062H59.1406C59.5177 63.4062 59.8794 63.2564 60.146 62.9898C60.4127 62.7231 60.5625 62.3615 60.5625 61.9844V47.7656C60.5625 47.3885 60.4127 47.0269 60.146 46.7602C59.8794 46.4936 59.5177 46.3438 59.1406 46.3438ZM57.7188 60.5625H43.5V49.1875H57.7188V60.5625Z" fill="#D0F0FC"/>
<path d="M55.6002 54.5053L54.1499 56.951L52.0313 55.6855L49.9127 56.951C49.6924 57.0793 49.4425 57.1479 49.1876 57.15C48.9281 57.148 48.6736 57.0794 48.4482 56.951L45.6187 55.2447L47.069 52.7991L49.1876 54.0646L51.3062 52.7991C51.5248 52.6666 51.7756 52.5965 52.0313 52.5965C52.287 52.5965 52.5378 52.6666 52.7565 52.7991L55.6002 54.5053Z" fill="#D0F0FC"/>
<path d="M53.4531 30.7031H25.0156V33.5469H53.4531V30.7031Z" fill="#D0F0FC"/>
</svg>
