<svg width="77" height="77" viewBox="0 0 77 77" fill="none" xmlns="http://www.w3.org/2000/svg">
<path d="M38.5 76.4167C17.5688 76.3937 0.606361 59.4313 0.583374 38.5V37.7417C1.0002 16.9047 18.1562 0.310213 38.9955 0.586716C59.8348 0.86322 76.5445 17.9071 76.4083 38.7478C76.2721 59.5885 59.3412 76.4125 38.5 76.4167ZM38.4394 68.8334H38.5C55.2467 68.8166 68.8114 55.2316 68.803 38.4849C68.7947 21.7382 55.2164 8.16673 38.4697 8.16673C21.723 8.16673 8.14475 21.7382 8.13637 38.4849C8.128 55.2316 21.6927 68.8166 38.4394 68.8334ZM42.2917 61.25H34.7084V53.6667H42.2917V61.25ZM42.2917 49.875H34.7084C34.5885 44.937 37.1583 40.3231 41.4196 37.8251C43.9221 35.9065 46.0834 34.2534 46.0834 30.9167C46.0834 26.7286 42.6882 23.3334 38.5 23.3334C34.3119 23.3334 30.9167 26.7286 30.9167 30.9167H23.3334V30.5755C23.3943 25.1569 26.3414 20.1825 31.0645 17.5261C35.7875 14.8696 41.569 14.9346 46.2311 17.6967C50.8932 20.4587 53.7277 25.4982 53.6667 30.9167C53.3952 35.008 51.2008 38.7285 47.7517 40.9457C44.6338 42.9029 42.613 46.2078 42.2917 49.875Z" fill="#D0F0FC"/>
</svg>
