<svg width="134" height="37" viewBox="0 0 134 37" fill="none" xmlns="http://www.w3.org/2000/svg">
<path d="M122.25 0.0639648C114.667 0.0639648 108.517 5.19505 108.517 11.5238V36.2837H113.168V11.7601C113.168 7.57599 117.232 4.18455 122.249 4.18455V0.0639648H122.25Z" fill="#00AEEF"/>
<path d="M133.061 0.990192C133.061 0.473155 132.019 0.0539551 130.734 0.0539551C129.446 0.0539551 128.404 0.473155 128.404 0.990906V0.993763V36.2829H133.061V0.990192H133.061Z" fill="#00AEEF"/>
<path d="M36.5445 0.0639648C31.7919 0.0639648 27.6042 2.08069 25.1394 5.14221C22.6747 2.08069 18.4848 0.0639648 13.7322 0.0639648C6.14971 0.0639648 0 5.19505 0 11.5238V36.2837H4.65133V11.7601C4.65133 7.57599 8.71785 4.18455 13.7315 4.18455C18.7479 4.18455 22.8116 7.57599 22.8116 11.7601V36.2837H27.463V11.7601C27.463 7.57599 31.5295 4.18455 36.5431 4.18455C41.5596 4.18455 45.6232 7.57599 45.6232 11.7601V36.2837H50.2746V11.5238C50.2767 5.19434 44.1291 0.0639648 36.5445 0.0639648Z" fill="white"/>
<path d="M55.8302 11.5238V24.8239C55.8302 31.1519 61.9763 36.2837 69.5616 36.2837H74.0618V32.1638H69.5616C64.5452 32.1638 60.4815 28.7723 60.4815 24.5861V24.5818V21.291H69.5616V17.1155H60.4815V11.7644V11.7601C60.4815 7.57528 64.5452 4.18455 69.5616 4.18455V4.18312H74.0618V0.0639648H69.5616C61.9763 0.0639648 55.8302 5.19505 55.8302 11.5238Z" fill="white"/>
<path d="M89.1112 0.0639648V0.0653923H80.1402V0.06825V36.2837V36.2865L84.6418 36.2837H89.1112V36.2822C96.6937 36.2822 102.841 31.1519 102.841 24.8253V11.5238C102.841 5.19505 96.6937 0.0639648 89.1112 0.0639648ZM98.1886 24.5818V24.5861C98.1886 28.7723 94.1249 32.1638 89.1105 32.1638V32.1645H84.6411V4.18169H89.1105C94.1242 4.18169 98.1886 7.57456 98.1886 11.7594V11.7637V24.5818Z" fill="white"/>
</svg>
