<svg width="254" height="64" viewBox="0 0 254 64" fill="none" xmlns="http://www.w3.org/2000/svg">
<path d="M57.1635 43.1287C58.3596 43.1287 59.345 42.1369 59.345 40.9304C59.345 39.7177 58.3596 38.7322 57.1635 38.7322C55.965 38.7322 54.9808 39.7177 54.9808 40.9304C54.9808 42.1369 55.965 43.1287 57.1635 43.1287ZM52.8846 46.1806L55.7393 48.0499C55.9562 48.1867 56.0853 48.2922 56.1154 48.3474C56.1731 48.4253 56.1957 48.4993 56.1869 48.5797C56.1869 48.6851 56.1392 48.8044 56.0628 48.93L55.965 49.0781L56.0853 49.1522L57.5522 46.8635L57.4369 46.7857L57.3403 46.9351C57.2689 47.0594 57.1811 47.1385 57.0971 47.1812C57.0068 47.2301 56.9241 47.2439 56.8514 47.2339C56.7824 47.2163 56.6395 47.1447 56.4188 46.9979L53.5616 45.1298C53.3472 44.9867 53.2193 44.8888 53.1855 44.8323C53.1265 44.7557 53.109 44.6741 53.109 44.5962C53.1178 44.4908 53.1629 44.369 53.2419 44.246L53.3359 44.1041L53.2193 44.0263L51.7474 46.3149L51.8578 46.3927L51.9568 46.2446C52.0346 46.1216 52.1135 46.0375 52.2051 45.9948C52.2978 45.9458 52.3743 45.932 52.4483 45.9458C52.5147 45.9559 52.6602 46.0299 52.8846 46.1806ZM47.6403 51.0491C47.466 51.5249 47.4234 52.012 47.5023 52.5217C47.5901 53.0327 47.7945 53.4796 48.1104 53.855C48.4163 54.2165 48.7849 54.4852 49.2275 54.6522C49.6713 54.8204 50.1377 54.858 50.6028 54.745C51.0742 54.6396 51.5205 54.4099 51.9468 54.0508C52.2678 53.7796 52.4959 53.4884 52.6577 53.1796C52.8081 52.8707 52.9009 52.5054 52.9272 52.0861L52.6439 51.7333C52.6301 52.2053 52.5711 52.5769 52.4608 52.8619C52.3367 53.1494 52.1562 53.3942 51.9067 53.6076C51.602 53.8637 51.2911 54.0006 50.9789 54.0106C50.6617 54.0244 50.332 53.919 50.0048 53.7043C49.6663 53.4846 49.3491 53.1971 49.0557 52.8356C48.7548 52.4803 48.5392 52.0949 48.4163 51.6956C48.3185 51.3793 48.3185 51.0642 48.4025 50.7415C48.4878 50.4239 48.657 50.1615 48.9053 49.9519C49.1961 49.702 49.5434 49.5727 49.9421 49.569C50.332 49.569 50.7232 49.7045 51.1081 49.9958L51.2209 49.8966L50.075 48.5106L49.9559 48.6111C50.0261 48.7216 50.0574 48.8182 50.0474 48.9061C50.0386 48.994 50.011 49.0555 49.9421 49.1082C49.897 49.1522 49.7553 49.2162 49.5121 49.294C49.1033 49.4334 48.7623 49.6217 48.479 49.8577C48.1029 50.1816 47.822 50.5771 47.6403 51.0491ZM43.192 53.8663L39.234 55.6439L39.293 55.7758L39.4534 55.7004C39.6089 55.6377 39.7368 55.6176 39.8571 55.6377C39.9399 55.6515 40.0176 55.7004 40.069 55.7707C40.1054 55.8084 40.1681 55.9452 40.2646 56.1587L41.6475 59.2934C41.7515 59.532 41.8067 59.6889 41.8029 59.7567C41.8067 59.8496 41.7891 59.9249 41.7377 59.9889C41.6738 60.0743 41.5772 60.1496 41.4431 60.2124L41.2839 60.2802L41.3428 60.4108L45.4262 58.5766L44.9698 56.9671L44.8419 57.0249C44.9122 57.502 44.8608 57.8974 44.6815 58.2188C44.5047 58.5515 44.2013 58.8114 43.76 59.0097L43.4804 59.1378C43.3387 59.1993 43.2372 59.2219 43.1645 59.2131C43.0817 59.1993 43.0178 59.1717 42.9714 59.1252C42.925 59.075 42.846 58.9181 42.7231 58.6557L42.1314 57.3136C42.3571 57.2157 42.5489 57.1655 42.6868 57.1743C42.8335 57.1793 42.9902 57.2521 43.1557 57.3789C43.3237 57.5158 43.4854 57.7116 43.6308 57.9715L43.76 57.9087L42.6592 55.418L42.5263 55.482C42.6504 55.8661 42.6868 56.1813 42.6329 56.4323C42.589 56.6847 42.4122 56.878 42.1101 57.0098L42.0223 57.0538L41.1598 55.1091L41.6475 54.8957C42.0123 54.735 42.2605 54.6396 42.4122 54.627C42.6592 54.5982 42.8799 54.627 43.0679 54.7262C43.261 54.8216 43.4578 55.0225 43.6785 55.3426L43.8164 55.2786L43.192 53.8663ZM33.2826 60.525C33.1861 60.6455 33.151 60.7999 33.1685 60.9732C33.2049 61.2506 33.3641 61.4867 33.665 61.69C33.9571 61.8796 34.3232 61.9537 34.7557 61.8984C35.1068 61.8532 35.4001 61.7428 35.6346 61.5607C35.864 61.3762 36.0157 61.169 36.0859 60.9255C36.1587 60.6895 36.1674 60.3254 36.1035 59.827L35.7988 57.2923C35.7625 57.0312 35.7587 56.873 35.7775 56.8027C35.8013 56.7135 35.8465 56.647 35.9092 56.6043C35.9932 56.539 36.1085 56.4926 36.264 56.4788L36.4232 56.4524L36.4144 56.3156L33.6825 56.6508L33.7001 56.7939L33.912 56.7675C34.0562 56.7487 34.1728 56.7625 34.263 56.7989C34.3558 56.8403 34.4197 56.8893 34.4573 56.9508C34.4987 57.0123 34.525 57.1743 34.5576 57.4417L34.8974 60.2111C34.9601 60.7535 34.9852 61.0786 34.9789 61.2017C34.9601 61.3285 34.915 61.4189 34.8523 61.4854C34.7921 61.5519 34.7043 61.5896 34.5953 61.6022C34.4461 61.626 34.3132 61.6021 34.2141 61.5431C34.1402 61.5005 34.1 61.4502 34.09 61.3837C34.09 61.3373 34.1126 61.2644 34.1665 61.1489C34.2229 61.0435 34.2593 60.9657 34.263 60.9393C34.2781 60.8803 34.2781 60.8188 34.268 60.7535C34.2505 60.6116 34.1853 60.4936 34.0637 60.407C33.9483 60.3229 33.8117 60.2877 33.6587 60.3015C33.502 60.3266 33.3804 60.3995 33.2826 60.525ZM26.0988 61.2971L26.085 61.4377L28.768 61.7691L28.7855 61.6273L28.6175 61.6034C28.4708 61.5909 28.3605 61.5482 28.2853 61.4917C28.2 61.4289 28.1524 61.3674 28.1348 61.2971C28.1123 61.2293 28.1173 61.0598 28.1524 60.7962L28.5648 57.3865C28.5949 57.1266 28.6313 56.9671 28.6664 56.9144C28.7153 56.8291 28.7767 56.7788 28.8407 56.7424C28.9372 56.706 29.0613 56.6935 29.2118 56.7123L29.3823 56.7349L29.4011 56.593L26.7093 56.2603L26.7006 56.3997L26.8698 56.421C27.0115 56.4436 27.1268 56.4826 27.2033 56.5428C27.2785 56.5981 27.3312 56.6696 27.35 56.7349C27.3675 56.8065 27.3675 56.9684 27.3312 57.2371L26.9187 60.6367C26.8823 60.8966 26.8523 61.0598 26.8134 61.1176C26.7733 61.1954 26.7093 61.2557 26.6391 61.2808C26.5426 61.3222 26.4185 61.3398 26.2668 61.3209L26.0988 61.2971ZM19.9505 56.5416L20.8733 54.4488L21.2406 54.6245C21.6192 54.7852 21.8537 54.9974 21.9427 55.2485C22.0367 55.4958 22.0054 55.7984 21.8399 56.1637C21.7346 56.4148 21.5967 56.598 21.4374 56.7135C21.2719 56.8303 21.1039 56.883 20.9096 56.868C20.7228 56.8579 20.4733 56.7751 20.1473 56.632L19.9505 56.5416ZM17.1748 58.038L17.1196 58.1711L19.538 59.2558L19.5919 59.1277C19.3725 59.0223 19.2371 58.9382 19.1745 58.8628C19.1118 58.7888 19.0867 58.7147 19.0817 58.6281C19.0779 58.5527 19.1343 58.377 19.2497 58.1246L19.8352 56.7914L20.1511 56.9232L20.7153 59.778L22.2035 60.4484L22.2611 60.3241C22.137 60.2576 22.0442 60.166 21.9778 60.0492C21.9414 59.9714 21.8938 59.7956 21.8399 59.5156L21.4136 57.3965C21.7346 57.4555 22.0041 57.4404 22.226 57.3701C22.5821 57.2546 22.8391 57.0224 22.9933 56.6646C23.1187 56.3771 23.1437 56.0909 23.0735 55.7996C22.9996 55.5159 22.8516 55.2661 22.6147 55.0677C22.3903 54.8693 21.9916 54.6421 21.4136 54.3822L19.2221 53.4055L19.1619 53.5298C19.3826 53.629 19.5142 53.7131 19.5794 53.7909C19.6396 53.865 19.6759 53.9403 19.6759 54.027C19.6759 54.1048 19.6195 54.2718 19.5067 54.5329L18.1414 57.6212C18.0298 57.8811 17.9458 58.0355 17.8831 58.0882C17.8217 58.1397 17.744 58.1673 17.6487 58.1774C17.5521 58.1836 17.3917 58.1372 17.1748 58.038ZM7.94986 48.537C7.82574 48.7956 7.78813 49.117 7.85332 49.4811C7.89595 49.7485 8.05518 50.0711 8.31721 50.4327C8.63189 50.8696 8.97792 51.1508 9.33774 51.2751C9.70508 51.3855 10.026 51.3981 10.2868 51.309C10.5488 51.2173 10.935 50.9826 11.4177 50.6298L13.0162 49.4635C13.1741 49.338 13.3108 49.2626 13.3973 49.24C13.5164 49.2074 13.6267 49.2149 13.7283 49.2589C13.8386 49.3003 13.9326 49.3882 14.0129 49.5012L14.0781 49.5853L14.1947 49.5012L13.139 48.0411L13.0274 48.124C13.1453 48.301 13.223 48.4466 13.2368 48.5734C13.2506 48.655 13.2368 48.7454 13.1829 48.8433C13.1302 48.9413 13.0162 49.063 12.8193 49.1974L11.1168 50.4478C10.673 50.7742 10.3269 50.9637 10.095 51.0127C9.85678 51.0629 9.63236 51.0466 9.41296 50.9637C9.19606 50.8796 9.00424 50.7164 8.83624 50.4879C8.70084 50.2933 8.61434 50.095 8.6018 49.9092C8.58675 49.7209 8.62311 49.5439 8.70085 49.402C8.78359 49.2576 9.01302 49.0404 9.38538 48.7718L11.4315 47.2678C11.6672 47.1008 11.8339 46.9954 11.9104 46.9815C11.9856 46.9677 12.0658 46.9677 12.1448 47.0079C12.2251 47.0456 12.3279 47.1447 12.4382 47.3105L12.5172 47.4159L12.6325 47.3318L11.0629 45.1599L10.9488 45.2403C11.0804 45.4198 11.1519 45.5554 11.1594 45.6458C11.1682 45.7312 11.1594 45.819 11.1218 45.8918C11.0854 45.9546 10.9488 46.0789 10.6993 46.2547L8.65069 47.7624C8.30341 48.0148 8.06896 48.2734 7.94986 48.537ZM4.29651 41.3096C4.29651 42.5198 5.27943 43.5078 6.47674 43.5078C7.67404 43.5078 8.65571 42.5198 8.65571 41.3096C8.65571 40.1031 7.67404 39.1138 6.47674 39.1138C5.27943 39.1138 4.29651 40.1031 4.29651 41.3096ZM3.78249 31.2637L2.05736 31.3365L2.06112 31.4508C2.22034 31.4796 2.31688 31.516 2.357 31.5524C2.39963 31.5876 2.42219 31.6453 2.42219 31.7081C2.4247 31.7797 2.38208 31.9015 2.30309 32.076C2.22411 32.2505 2.1702 32.3961 2.14261 32.5191C2.10626 32.6786 2.08494 32.8393 2.09372 33.0163C2.09748 33.4757 2.24918 33.8561 2.5413 34.16C2.83968 34.46 3.19073 34.6056 3.60445 34.5981C3.84517 34.5981 4.06457 34.5366 4.26893 34.4198C4.46702 34.3018 4.64129 34.1411 4.80176 33.9315C4.95973 33.7168 5.15531 33.3715 5.37597 32.8983C5.53645 32.5555 5.66934 32.317 5.76588 32.1839C5.86994 32.0458 5.98151 31.9454 6.08683 31.8801C6.20092 31.8073 6.31626 31.7772 6.44038 31.7721C6.64599 31.7721 6.83029 31.8487 6.99076 32.0232C7.14622 32.1877 7.22521 32.4149 7.22897 32.7037C7.23775 33.074 7.09608 33.4218 6.81274 33.7507C6.53065 34.0796 6.11316 34.3018 5.5728 34.4299V34.5654L7.53237 34.5316L7.52736 34.3884C7.41703 34.3495 7.34306 34.2893 7.28288 34.2139C7.23399 34.1411 7.21393 34.0708 7.21393 34.0055C7.21017 33.9277 7.22897 33.8197 7.28288 33.7005C7.3719 33.4757 7.42581 33.2962 7.45715 33.1493C7.48975 33.0025 7.50479 32.8405 7.49601 32.6798C7.491 32.1563 7.32425 31.7269 7.00957 31.3943C6.69112 31.0578 6.31626 30.8971 5.88122 30.9046C5.54021 30.9097 5.24307 31.0214 4.98104 31.2361C4.72027 31.4533 4.44445 31.8738 4.1586 32.484C3.95048 32.9271 3.80631 33.2083 3.72858 33.3238C3.61073 33.4958 3.49538 33.6189 3.38129 33.698C3.29228 33.7469 3.19073 33.7708 3.07664 33.7783C2.8961 33.7783 2.73688 33.7093 2.59145 33.5586C2.45228 33.4092 2.37957 33.1996 2.37706 32.9397C2.36703 32.6007 2.49366 32.2844 2.75192 31.9868C3.01019 31.6918 3.35872 31.5035 3.78875 31.4244L3.78249 31.2637ZM8.52658 24.851L5.20922 22.0251C4.81932 21.6911 4.5786 21.4589 4.48081 21.3195C4.3592 21.1274 4.3078 20.9354 4.33162 20.7483L4.19621 20.7069L3.72732 22.3502L3.86523 22.3891C3.91287 22.2159 3.9743 22.0816 4.04577 21.9924C4.09717 21.9196 4.15108 21.8807 4.22129 21.8531C4.28648 21.8305 4.3592 21.8305 4.43066 21.8531C4.4946 21.8669 4.56857 21.902 4.65006 21.9573C4.73782 22.01 4.89704 22.1368 5.12773 22.3276L7.05345 23.9597L4.27144 24.3087C3.97556 24.3476 3.79377 24.3714 3.72732 24.3714C3.66714 24.3714 3.60822 24.3714 3.5681 24.3576C3.49538 24.335 3.449 24.2961 3.42517 24.2246C3.39759 24.1266 3.41013 23.9785 3.47281 23.7601L3.49538 23.6785L3.36123 23.6408L2.67545 26.0399L2.81461 26.0813C2.89359 25.893 2.9801 25.7725 3.08542 25.7273C3.18947 25.6859 3.50917 25.6244 4.04326 25.5528L8.4852 24.9816L8.52658 24.851ZM13.4662 15.7153L12.3417 14.4863L12.2514 14.5993C12.526 14.9859 12.6589 15.3676 12.6463 15.7379C12.64 16.1083 12.4833 16.4849 12.1774 16.859L11.9843 17.1026C11.8916 17.2218 11.8076 17.2871 11.7361 17.3147C11.6634 17.3399 11.5944 17.3411 11.5255 17.3248C11.4615 17.2984 11.3199 17.2018 11.0992 17.0172L9.96585 16.0995C10.1226 15.8999 10.2693 15.7781 10.3984 15.7153C10.53 15.6513 10.6993 15.6413 10.9124 15.6877C11.1168 15.7291 11.3424 15.8346 11.5944 15.9978L11.6835 15.8836L9.58096 14.1661L9.48442 14.2766C9.77278 14.5629 9.95331 14.834 10.0173 15.0788C10.0862 15.3236 10.0173 15.5772 9.80663 15.8359L9.74143 15.9149L8.10909 14.5754L8.44007 14.1611C8.69082 13.8536 8.87511 13.659 9.00424 13.5711C9.21863 13.433 9.4255 13.3602 9.63487 13.3602C9.848 13.3602 10.1226 13.4493 10.4561 13.6226L10.5488 13.5133L9.3603 12.5416L6.6322 15.9375L6.74253 16.0279L6.85285 15.8898C6.95817 15.7555 7.07226 15.6777 7.18635 15.6438C7.26533 15.6237 7.34682 15.6287 7.43583 15.6689C7.48097 15.6927 7.60384 15.7806 7.77936 15.9275L10.4247 18.0856C10.6278 18.2475 10.7444 18.3618 10.7745 18.4258C10.8247 18.5086 10.8372 18.5865 10.8247 18.658C10.8008 18.7685 10.7519 18.8815 10.6541 18.9945L10.5438 19.1276L10.6541 19.223L13.4662 15.7153ZM19.2823 10.6711C19.4239 10.3133 19.454 10.0032 19.3826 9.72573C19.3074 9.45205 19.1118 9.05911 18.7896 8.53685L17.7452 6.85208C17.6361 6.67506 17.5734 6.53948 17.5559 6.45537C17.5283 6.32982 17.5383 6.21935 17.5923 6.11766C17.6449 6.01597 17.7352 5.92307 17.858 5.849L17.9458 5.78748L17.8718 5.67073L16.3586 6.62611L16.4288 6.74914C16.6081 6.6374 16.7585 6.57337 16.8877 6.56333C16.9692 6.55454 17.0594 6.58216 17.1484 6.63991C17.245 6.70268 17.3503 6.82571 17.4769 7.02532L18.594 8.83439C18.8823 9.30517 19.0466 9.65417 19.0817 9.90149C19.1118 10.1375 19.0817 10.3685 18.9789 10.5832C18.8773 10.7928 18.7131 10.9736 18.4736 11.1268C18.2668 11.2548 18.0699 11.3176 17.8831 11.3226C17.6988 11.3226 17.5283 11.2799 17.3917 11.187C17.2537 11.0941 17.0594 10.8556 16.8099 10.4589L15.4697 8.29205C15.313 8.04222 15.2315 7.87148 15.2139 7.79364C15.2052 7.71078 15.2227 7.63421 15.2678 7.56139C15.3042 7.48356 15.4095 7.3894 15.5838 7.28269L15.6941 7.21113L15.6227 7.08559L13.3547 8.51425L13.4299 8.63979C13.6167 8.51425 13.7508 8.45274 13.8424 8.45023C13.9376 8.44144 14.0116 8.46404 14.0843 8.50421C14.1445 8.55192 14.2561 8.70131 14.4153 8.95616L15.7543 11.1205C15.9837 11.4896 16.2269 11.7444 16.4827 11.8863C16.7309 12.0319 17.0381 12.0847 17.4054 12.0495C17.675 12.0219 18.0085 11.8863 18.3871 11.6478C18.841 11.3553 19.1343 11.0301 19.2823 10.6711ZM27.508 7.65429C27.7875 7.45593 28.0395 7.17347 28.2627 6.81442L28.1637 6.37502C27.943 6.77927 27.7223 7.08182 27.4816 7.28143C27.2422 7.47853 26.9676 7.60658 26.6492 7.67814C26.2592 7.75849 25.9245 7.73213 25.6412 7.59403C25.3566 7.45594 25.1133 7.20862 24.9265 6.85961C24.7322 6.50809 24.5868 6.10385 24.4852 5.64813C24.3887 5.18739 24.3837 4.74297 24.4614 4.3312C24.5216 4.01106 24.6595 3.7286 24.8877 3.49007C25.1133 3.25154 25.3841 3.09587 25.7001 3.02933C26.0724 2.94396 26.4435 2.99669 26.7908 3.17872C27.1406 3.36578 27.4202 3.67587 27.6233 4.10899L27.77 4.07132L27.4026 2.31249L27.2509 2.33885C27.2647 2.47318 27.2422 2.57487 27.1995 2.64643C27.1544 2.71924 27.0905 2.75942 27.0127 2.78201C26.945 2.79331 26.7933 2.7795 26.5413 2.73807C26.1163 2.66275 25.7264 2.67153 25.3716 2.7456C24.8839 2.84729 24.4526 3.0695 24.0765 3.39967C23.7004 3.73487 23.4271 4.14665 23.2691 4.6325C23.1086 5.12337 23.0773 5.61298 23.1789 6.10385C23.2779 6.56459 23.4848 6.97135 23.7969 7.33291C24.1154 7.69321 24.5003 7.93927 24.9667 8.06607C25.4343 8.19412 25.9395 8.20165 26.4799 8.08741C26.8886 8.00204 27.2284 7.85641 27.508 7.65429ZM41.9722 50.9738H21.4951C24.5454 52.6498 28.0283 53.6064 31.7355 53.6064C35.4403 53.6064 38.9256 52.6498 41.9722 50.9738ZM46.4467 47.6846H17.0243C17.606 48.2395 18.2216 48.7693 18.8648 49.2564H44.6025C45.2481 48.7693 45.8675 48.2407 46.4467 47.6846ZM25.8317 25.1925C25.8317 22.6691 23.7919 20.6127 21.2895 20.6127C18.7896 20.6127 16.7485 22.6704 16.7485 25.1925C16.7485 27.7134 18.7896 29.7748 21.2895 29.7748C23.7919 29.776 25.8317 27.7134 25.8317 25.1925ZM47.0598 25.1925C47.0598 22.6691 45.0187 20.6127 42.5188 20.6127C40.0151 20.6127 37.974 22.6704 37.974 25.1925C37.974 27.7134 40.0151 29.7748 42.5188 29.7748C45.0187 29.776 47.0598 27.7134 47.0598 25.1925ZM50.9488 25.1925C50.9488 29.8739 47.1613 33.6929 42.5188 33.6929H37.0388L39.6891 36.259L47.4585 43.8229H31.9035H16.3498L24.1292 36.259L26.7708 33.6929H21.2895C16.6419 33.6929 12.8544 29.8752 12.8544 25.1925C12.8544 20.5048 16.6419 16.6845 21.2895 16.6845H29.727V25.1925V32.3421L30.5645 33.541L31.9035 35.443L33.2475 33.541L34.09 32.3421V25.4461C34.0862 25.3607 34.0812 25.2779 34.0812 25.1925C34.0812 25.1096 34.0862 25.0218 34.09 24.9364V16.6845H42.5188C47.1613 16.6845 50.9488 20.5048 50.9488 25.1925ZM53.1629 32.0031C53.1629 20.103 43.5381 10.3949 31.7355 10.3949C19.933 10.3949 10.3094 20.1018 10.3094 32.0031C10.3094 37.4265 12.3141 42.4018 15.6126 46.2032H47.8584C51.1582 42.4018 53.1629 37.4265 53.1629 32.0031ZM47.5023 16.0995C51.5481 20.1796 54.0581 25.8051 54.0581 32.0031C54.0581 44.3941 44.0258 54.5065 31.7355 54.5065C25.5935 54.5065 20.0082 51.9794 15.9674 47.903C11.9229 43.8254 9.41296 38.2011 9.41296 32.0031C9.41296 19.6046 19.4453 9.49474 31.7355 9.49474C37.8863 9.49474 43.4666 12.0206 47.5023 16.0995ZM48.2044 15.3927C43.9844 11.1356 38.1571 8.49793 31.7355 8.49793C18.8936 8.49793 8.42878 19.0547 8.42878 32.0031C8.42878 38.4786 11.0453 44.3552 15.2666 48.6073C19.4854 52.8669 25.3177 55.5058 31.7355 55.5058C44.5762 55.5058 55.0422 44.9515 55.0422 32.0031C55.0422 25.5289 52.4245 19.6486 48.2044 15.3927ZM35.1519 2.50205L35.1632 2.3627L32.4689 2.17062L32.4539 2.31374L32.6269 2.32504C32.7723 2.33885 32.8839 2.36647 32.9642 2.42422C33.0431 2.4782 33.0983 2.54097 33.1209 2.61127C33.1447 2.67656 33.1447 2.84604 33.1322 3.11093L32.8927 6.53697C32.8751 6.80061 32.8476 6.95879 32.8137 7.01277C32.7723 7.09814 32.7234 7.1584 32.6545 7.18853C32.5567 7.23624 32.4326 7.26009 32.2821 7.24879L32.1116 7.23624L32.1029 7.37182L34.8009 7.56641L34.8134 7.42204L34.6404 7.41074C34.4987 7.39568 34.3834 7.36931 34.2994 7.30654C34.2229 7.25633 34.1627 7.19607 34.1389 7.12325C34.1176 7.05797 34.1176 6.88723 34.1301 6.62359L34.3733 3.20007C34.3834 2.93768 34.4097 2.78326 34.4461 2.71924C34.4887 2.63638 34.5439 2.57612 34.6141 2.54599C34.7081 2.49703 34.831 2.47695 34.9776 2.48573L35.1519 2.50205ZM42.3972 9.7885L43.2271 8.14391L43.0817 8.08992C42.8234 8.42888 42.599 8.67243 42.4022 8.82057C42.1991 8.97122 41.9947 9.05659 41.7904 9.08045C41.586 9.10807 41.3553 9.06915 41.0996 8.97123L40.6909 8.80928C40.469 8.72391 40.3248 8.66114 40.2734 8.61092C40.2044 8.54815 40.1681 8.47534 40.1681 8.40001C40.1681 8.3159 40.2107 8.15269 40.306 7.90412L41.4845 4.80072C41.5772 4.55592 41.6537 4.40903 41.7001 4.36133C41.7641 4.29479 41.833 4.25964 41.9107 4.24709C42.0123 4.22825 42.1364 4.24708 42.2781 4.30358L42.4875 4.38141L42.5351 4.24834L39.9612 3.2553L39.9098 3.38963L40.0715 3.44989C40.2057 3.50011 40.3097 3.5679 40.3699 3.64197C40.4326 3.72232 40.4589 3.7989 40.4589 3.86795C40.469 3.94076 40.4251 4.1002 40.3248 4.35003L39.1074 7.55888C39.0084 7.79867 38.9432 7.94304 38.898 7.99074C38.8278 8.06356 38.7601 8.10122 38.6862 8.11126C38.5796 8.12758 38.4542 8.1075 38.3213 8.05351L38.1583 7.99074L38.1094 8.12633L42.3972 9.7885ZM50.742 9.31521L50.8297 9.20473L48.6959 7.52373L48.6106 7.63923L48.7435 7.74468C48.8614 7.83005 48.9303 7.92797 48.9717 8.01711C49.0068 8.11377 49.0206 8.19287 48.998 8.26191C48.9805 8.32971 48.8902 8.47157 48.7272 8.68374L46.6323 11.3867C46.473 11.59 46.3577 11.7093 46.3013 11.7369C46.216 11.7859 46.137 11.806 46.0643 11.7922C45.9678 11.7771 45.8524 11.7181 45.7333 11.6352L45.5954 11.5235L45.5114 11.6377L47.6415 13.3137L47.7242 13.2045L47.5914 13.1003C47.4823 13.0099 47.4046 12.9158 47.3707 12.8254C47.3343 12.73 47.3206 12.6496 47.3444 12.5793C47.3569 12.5065 47.4447 12.3684 47.6089 12.1587L49.7064 9.45331C49.8656 9.24365 49.9772 9.13318 50.0361 9.09677C50.1201 9.05534 50.1991 9.03274 50.2706 9.0478C50.3759 9.06161 50.4937 9.12062 50.6078 9.20725L50.742 9.31521ZM54.9595 16.2049L56.2759 15.0788L56.1969 14.9872C56.064 15.0613 55.9637 15.0952 55.9035 15.0926C55.8496 15.0864 55.8045 15.0588 55.7619 15.006C55.7167 14.9546 55.6716 14.8353 55.629 14.6482C55.5838 14.4624 55.5362 14.308 55.4861 14.195C55.4184 14.0444 55.3268 13.9063 55.229 13.7732C54.9357 13.4142 54.5871 13.2108 54.1697 13.153C53.7522 13.1028 53.3823 13.202 53.0639 13.4669C52.8771 13.6226 52.7391 13.8071 52.6526 14.018C52.5686 14.2302 52.5248 14.4725 52.5323 14.7361C52.5323 14.9972 52.5849 15.3939 52.7066 15.9049C52.7906 16.2765 52.8344 16.5452 52.8344 16.7109C52.8445 16.8816 52.8169 17.031 52.7667 17.1515C52.7178 17.2783 52.6476 17.3788 52.5599 17.4528C52.3944 17.5847 52.2038 17.6311 51.9731 17.5997C51.7474 17.5646 51.5381 17.4378 51.3626 17.2118C51.1306 16.9231 51.0241 16.5602 51.0516 16.1284C51.0742 15.6915 51.2635 15.2571 51.6196 14.8252L51.5293 14.7148L50.0136 15.9526L50.1026 16.0643C50.2079 16.0355 50.3057 16.0292 50.3959 16.053C50.4824 16.0782 50.5464 16.1208 50.589 16.1736C50.6392 16.2363 50.6793 16.3292 50.7131 16.4598C50.7858 16.6833 50.846 16.8691 50.915 17.0059C50.9789 17.1402 51.0654 17.2695 51.1707 17.3963C51.4955 17.8031 51.8854 18.0391 52.3367 18.1119C52.7943 18.1747 53.1892 18.0705 53.5265 17.7956C53.7885 17.5759 53.959 17.3047 54.0317 16.9733C54.107 16.6381 54.0656 16.1397 53.9227 15.4793C53.8136 14.9997 53.7522 14.6934 53.7434 14.5415C53.7296 14.3407 53.7484 14.1762 53.7948 14.0444C53.8274 13.9502 53.8988 13.8611 53.9866 13.787C54.1208 13.674 54.2888 13.6288 54.5006 13.6615C54.6975 13.6891 54.8818 13.8109 55.0422 14.0092C55.2654 14.2779 55.3532 14.6043 55.3268 14.9985C55.3043 15.3927 55.1488 15.7555 54.8579 16.0857L54.9595 16.2049ZM59.1494 25.1649L60.4759 24.7054L58.9639 20.2775L57.6362 20.7383L57.6863 20.8726C58.0675 20.8048 58.3872 20.8374 58.6542 20.9843C58.8435 21.0822 58.999 21.307 59.1093 21.6321L59.2334 21.9912L55.4585 23.3056C55.2115 23.391 55.0548 23.4274 54.9896 23.4186C54.8931 23.4186 54.8203 23.3822 54.7664 23.3282C54.6887 23.2604 54.6222 23.1537 54.5734 23.0093L54.5094 22.8449L54.3765 22.8951L55.2654 25.475L55.3983 25.431L55.3394 25.2653C55.2892 25.126 55.2779 25.0117 55.2992 24.9125C55.3168 24.8146 55.3532 24.7418 55.4071 24.6916C55.4585 24.6414 55.6102 24.5711 55.8672 24.4819L59.6371 23.1775L59.7613 23.5429C59.8377 23.7764 59.8753 23.9396 59.8653 24.0476C59.8377 24.2396 59.7788 24.4053 59.6785 24.5447C59.5719 24.6903 59.3789 24.8535 59.1056 25.0368L59.1494 25.1649ZM61.1817 29.9869V30.1602C61.1817 30.3309 61.1416 30.459 61.0651 30.5582C61.0225 30.631 60.9448 30.6762 60.8608 30.695C60.8069 30.7101 60.6639 30.7138 60.427 30.7101L57.0219 30.6523C56.7623 30.6423 56.6056 30.6297 56.5417 30.5933C56.459 30.5582 56.3988 30.5092 56.3637 30.4414C56.311 30.3485 56.2847 30.2204 56.2884 30.0736L56.2935 29.9003H56.1518L56.0766 34.4048L57.7114 34.6696L57.7164 34.524C57.2613 34.3935 56.9228 34.175 56.7022 33.8762C56.4878 33.5799 56.3812 33.1883 56.39 32.6999L56.395 32.3911C56.3988 32.2429 56.4176 32.1312 56.4627 32.0672C56.5066 32.0006 56.5605 31.9554 56.6207 31.9303C56.6871 31.9052 56.8614 31.8977 57.1435 31.9052L58.6003 31.9303C58.6003 32.1802 58.5589 32.3672 58.4937 32.499C58.4273 32.6283 58.2982 32.7388 58.1051 32.838C57.917 32.9322 57.6788 32.9949 57.3804 33.0213L57.3754 33.1644L60.0822 33.2096L60.086 33.0665C59.691 33.0213 59.3814 32.9209 59.1871 32.7614C58.9814 32.6145 58.8799 32.3685 58.8887 32.0433L58.8924 31.9354L60.9949 31.9718L60.9811 32.5128C60.9774 32.9108 60.9498 33.1744 60.8971 33.3213C60.8207 33.5687 60.6978 33.7519 60.5323 33.8812C60.3668 34.0143 60.0998 34.116 59.7249 34.18L59.7186 34.3294L61.2519 34.3558L61.3259 29.9882H61.1817V29.9869ZM56.6758 13.9151C60.3254 19.0096 62.4806 25.2578 62.4806 32.0019C62.4806 49.0793 48.6721 63.0032 31.7355 63.0032C23.2679 63.0032 15.5825 59.5194 10.0147 53.9014C4.44571 48.2822 0.986679 40.5362 0.986679 32.0019C0.986679 17.5181 10.9312 5.29787 24.2834 1.92581L24.8701 2.63261L25.7176 2.44932L26.0022 1.54668C27.864 1.18763 29.781 0.999315 31.7355 0.999315C40.2019 0.999315 47.8885 4.48185 53.455 10.0986C54.2085 10.8531 54.9181 11.6478 55.5839 12.4814L55.2027 13.3941L55.7443 14.067L56.6758 13.9151ZM63.4685 32.0019C63.4685 23.1926 59.9079 15.1843 54.1559 9.39305C48.4113 3.59427 40.4727 0 31.7355 0C14.2573 0 0 14.3758 0 32.0019C0 40.8149 3.56183 48.8182 9.31517 54.6095C15.0547 60.4108 22.9983 64 31.7355 64C49.2149 64 63.4685 49.6267 63.4685 32.0019Z" fill="white" fill-opacity="0.75"/>
<path d="M250.829 18.4085H253.138V16.2166H250.829V18.4085ZM250.829 30.7191H253.138V20.2188H250.829V30.7191ZM248.878 23.7315C248.655 21.1504 246.582 19.9351 244.149 19.9351C240.702 19.9351 238.977 22.4108 238.977 25.582C238.977 28.6703 240.781 31.0041 244.069 31.0041C246.768 31.0041 248.45 29.5039 248.878 26.7821H246.565C246.34 28.2836 245.406 29.1775 244.069 29.1775C242.06 29.1775 241.289 27.327 241.289 25.582C241.289 22.3907 242.974 21.7592 244.17 21.7592C245.447 21.7592 246.381 22.451 246.565 23.7315H248.878ZM230.009 24.5462C230.07 22.9807 231.163 21.7592 232.766 21.7592C234.328 21.7592 235.324 23.0812 235.404 24.5462H230.009ZM237.717 26.0666C238.103 22.918 236.076 19.9339 232.766 19.9339C229.643 19.9339 227.699 22.4924 227.699 25.479C227.699 28.7092 229.542 31.0028 232.827 31.0028C235.12 31.0028 237.067 29.7236 237.573 27.4274H235.384C234.978 28.5874 234.167 29.1762 232.827 29.1762C230.9 29.1762 230.009 27.7124 230.009 26.0653H237.717V26.0666ZM223.376 18.4085H225.687V16.2166H223.376V18.4085ZM223.376 31.5138C223.376 32.552 223.292 33.058 222.442 33.058C222.219 33.058 221.955 33.019 221.651 32.9764V34.803C221.955 34.8431 222.239 34.8821 222.686 34.8821C224.857 34.8821 225.687 33.7057 225.687 31.6155V20.2163H223.376V31.5138ZM218.485 18.4085H220.797V16.2166H218.485V18.4085ZM218.485 30.7191H220.797V20.2188H218.485V30.7191ZM204.467 30.7191H207V24.7459H210.736C213.068 24.7459 213.617 25.9234 213.617 28.5849C213.617 29.2967 213.617 30.0902 214.002 30.7191H216.719C216.172 30.1291 215.928 28.5849 215.928 26.8989C215.928 24.6027 214.65 23.9549 213.779 23.8344V23.793C214.246 23.6298 216.172 22.9205 216.172 20.1372C216.172 17.6791 214.551 16.2166 211.385 16.2166H204.467V30.7191V30.7191ZM207 18.2855H211.12C212.438 18.2855 213.637 18.6508 213.637 20.5026C213.637 22.0266 212.764 22.8188 211.162 22.8188H207V18.2855V18.2855ZM196.065 20.2176H193.753V26.3139C193.753 27.9371 193.105 29.1762 191.175 29.1762C189.919 29.1762 189.166 28.5083 189.166 26.6591V20.2163H186.857V26.8826C186.857 29.6257 188.031 31.0028 190.769 31.0028C191.928 31.0028 193.186 30.3124 193.753 29.2553H193.796V30.7179H196.065V20.2176V20.2176ZM171.739 24.5462C171.799 22.9807 172.895 21.7592 174.498 21.7592C176.06 21.7592 177.053 23.0812 177.134 24.5462H171.739ZM179.448 26.0666C179.834 22.918 177.804 19.9339 174.498 19.9339C171.373 19.9339 169.428 22.4924 169.428 25.479C169.428 28.7092 171.271 31.0028 174.558 31.0028C176.852 31.0028 178.799 29.7236 179.306 27.4274H177.115C176.707 28.5874 175.896 29.1762 174.558 29.1762C172.631 29.1762 171.739 27.7124 171.739 26.0653H179.448V26.0666ZM162.125 21.9413H163.869V28.1418C163.908 29.8868 164.356 30.8196 166.768 30.8196C167.274 30.8196 167.762 30.7417 168.267 30.6978V28.9113C167.944 28.9929 167.619 28.9929 167.294 28.9929C166.26 28.9929 166.179 28.5058 166.179 27.5492V21.94H168.267V20.2163H166.179V17.0665H163.869V20.2163H162.125V21.9413ZM152.079 27.3496C152.122 29.829 154.089 31.0041 156.725 31.0041C158.898 31.0041 161.412 30.0914 161.412 27.5944C161.412 25.523 159.708 24.9103 158.023 24.5249C156.319 24.137 154.615 23.975 154.615 22.8364C154.615 21.9224 155.853 21.7592 156.522 21.7592C157.539 21.7592 158.451 22.0668 158.655 23.1615H161.067C160.783 20.8265 158.838 19.9351 156.684 19.9351C154.777 19.9351 152.302 20.6419 152.302 22.9381C152.302 25.0748 153.967 25.6837 155.671 26.0502C157.354 26.4356 159.04 26.5775 159.101 27.7978C159.161 28.9954 157.638 29.1787 156.766 29.1787C155.527 29.1787 154.514 28.6916 154.391 27.3508H152.079V27.3496ZM160.011 15.8701H158.125L156.684 17.6779L155.265 15.8701H153.399L155.57 18.7726H157.82L160.011 15.8701ZM147.819 18.4085H150.131V16.2166H147.819V18.4085ZM147.819 30.7191H150.131V20.2188H147.819V30.7191ZM142.932 30.7191H145.241V16.2166H142.932V30.7191ZM138.04 18.4085H140.352V16.2166H138.04V18.4085ZM138.04 30.7191H140.352V20.2188H138.04V30.7191ZM136.092 23.7315C135.867 21.1504 133.799 19.9351 131.363 19.9351C127.916 19.9351 126.192 22.4108 126.192 25.582C126.192 28.6703 127.995 31.0041 131.281 31.0041C133.982 31.0041 135.664 29.5039 136.092 26.7821H133.776C133.555 28.2836 132.62 29.1775 131.281 29.1775C129.275 29.1775 128.502 27.327 128.502 25.582C128.502 22.3907 130.187 21.7592 131.384 21.7592C132.663 21.7592 133.596 22.451 133.776 23.7315H136.092ZM134.428 15.8701H132.54L131.102 17.6779L129.681 15.8701H127.816L129.986 18.7726H132.236L134.428 15.8701ZM124.263 20.2176H121.951V26.3139C121.951 27.9371 121.303 29.1762 119.375 29.1762C118.116 29.1762 117.362 28.5083 117.362 26.6591V20.2163H115.054V26.8826C115.054 29.6257 116.229 31.0028 118.968 31.0028C120.123 31.0028 121.383 30.3124 121.951 29.2553H121.992V30.7179H124.263V20.2176ZM105.576 24.5462C105.636 22.9807 106.732 21.7592 108.334 21.7592C109.898 21.7592 110.892 23.0812 110.973 24.5462H105.576ZM113.285 26.0666C113.671 22.918 111.643 19.9339 108.334 19.9339C105.212 19.9339 103.265 22.4924 103.265 25.479C103.265 28.7092 105.11 31.0028 108.397 31.0028C110.69 31.0028 112.636 29.7236 113.145 27.4274H110.953C110.546 28.5874 109.736 29.1762 108.397 29.1762C106.469 29.1762 105.576 27.7124 105.576 26.0653H113.285V26.0666ZM96.0202 30.7191H98.6179L102.372 20.2176H99.9769L97.4206 28.2824H97.3817L94.7226 20.2176H92.2076L96.0202 30.7191ZM79.5475 25.8883C79.6089 29.4813 82.2831 31.0631 85.5929 31.0631C88.4753 31.0631 91.3526 29.7663 91.3526 26.5172C91.3526 25.0145 90.4411 23.3888 88.5354 22.8188C87.7845 22.5953 84.5774 21.7592 84.3555 21.699C83.3187 21.4127 82.6291 20.8453 82.6291 19.8309C82.6291 18.3671 84.1098 17.9415 85.2883 17.9415C87.0322 17.9415 88.2922 18.632 88.4126 20.5013H90.9463C90.9463 17.4758 88.4126 15.8713 85.3898 15.8713C82.7708 15.8713 80.0954 17.231 80.0954 20.1372C80.0954 21.6375 80.8238 23.1427 83.2986 23.8118C85.2883 24.363 86.6085 24.6266 87.6227 25.0145C88.212 25.2392 88.8188 25.6837 88.8188 26.801C88.8188 27.8982 87.9876 28.9954 85.7559 28.9954C83.7262 28.9954 82.0813 28.1229 82.0813 25.8883H79.5475V25.8883Z" fill="white" fill-opacity="0.75"/>
<path d="M234.364 46.2926C234.403 44.5853 235.581 43.8546 237.166 43.8546C238.665 43.8546 239.904 44.2827 239.904 46.0089C239.904 47.1664 239.318 47.307 238.263 47.43C235.501 47.759 232.642 47.8619 232.642 50.8046C232.642 52.9175 234.221 53.8703 236.15 53.8703C238.159 53.8703 239.071 53.0995 239.965 51.7386H240.005C240.005 52.8371 240.207 53.564 241.504 53.564C241.848 53.564 242.053 53.5439 242.339 53.4862V52.4115C242.235 52.453 242.073 52.4919 241.932 52.4919C241.425 52.4919 241.181 52.2069 241.181 51.7211V46.152C241.181 43.3487 239.175 42.7787 237.327 42.7787C234.932 42.7787 233.21 43.8358 233.087 46.2926H234.364V46.2926ZM239.904 49.5053C239.926 51.5553 238.2 52.7944 236.251 52.7944C235.053 52.7944 233.916 52.0023 233.916 50.723C233.916 48.6704 236.617 48.6892 238.788 48.3038C239.132 48.241 239.701 48.1419 239.866 47.8368H239.904V49.5053V49.5053ZM223.065 53.564H224.34V49.5856L226.41 47.8607L230.549 53.564H232.151L227.383 46.9655L231.849 43.0838H230.142L224.34 48.1607V39.0627H223.065V53.564V53.564ZM213.284 47.5945C213.484 45.685 214.644 43.8546 216.735 43.8546C218.804 43.8546 220.002 45.6637 220.062 47.5945H213.284ZM221.339 48.6691C221.44 45.7227 220.103 42.7787 216.735 42.7787C213.405 42.7787 212.006 45.5632 212.006 48.3264C212.006 51.313 213.405 53.8703 216.735 53.8703C219.372 53.8703 220.753 52.4906 221.296 50.1116H220.022C219.616 51.6972 218.601 52.7957 216.735 52.7957C214.278 52.7957 213.305 50.5397 213.284 48.6704H221.339V48.6691ZM208.803 41.1115H210.077V39.0602H208.803V41.1115ZM208.803 54.847C208.803 55.7196 208.64 56.3724 207.646 56.3724C207.441 56.3912 207.158 56.3724 206.955 56.3498V57.4056C207.259 57.4056 207.544 57.4445 207.849 57.4445C209.653 57.4445 210.077 56.1087 210.077 54.5432V43.0838H208.803V54.847ZM205.047 41.1115H206.322V39.0602H205.047V41.1115ZM205.047 53.564H206.322V43.0838H205.047V53.564ZM193.117 40.2378H198.271C200.34 40.2378 201.396 41.3576 201.396 43.1252C201.396 44.8916 199.955 45.9512 198.271 45.9512H193.117V40.2378ZM191.738 53.564H193.117V47.125H198.352C200.971 47.0258 201.134 49.2793 201.254 51.3118C201.295 51.9194 201.295 52.9953 201.64 53.564H203.157C202.55 52.8346 202.55 50.8435 202.49 49.848C202.389 48.1205 201.842 46.8212 199.955 46.5789V46.5362C201.822 46.1721 202.774 44.6681 202.774 42.8402C202.774 40.2164 200.768 39.0627 198.372 39.0627H191.738V53.564ZM184.635 43.0838H182.565V42.1686C182.587 41.0287 182.546 40.1348 183.966 40.1348C184.27 40.1348 184.554 40.175 184.898 40.2365V39.1418C184.494 39.0815 184.19 39.0627 183.825 39.0627C181.777 39.0627 181.27 40.3194 181.29 42.1297V43.0838H179.506V44.1584H181.29V53.5628H182.565V44.1584H184.635V43.0838ZM173.739 43.8534C176.197 43.8534 177.414 46.0893 177.414 48.3252C177.414 50.5585 176.197 52.7944 173.739 52.7944C171.285 52.7944 170.068 50.5598 170.068 48.3252C170.068 46.0905 171.285 43.8534 173.739 43.8534ZM173.739 42.7787C170.535 42.7787 168.793 45.3159 168.793 48.3264C168.793 51.3319 170.535 53.8703 173.739 53.8703C176.948 53.8703 178.69 51.3319 178.69 48.3264C178.688 45.3159 176.948 42.7787 173.739 42.7787ZM157.286 53.5264L156.842 54.724C156.413 55.6995 156.151 56.3711 155.015 56.3711C154.732 56.3711 154.449 56.3284 154.143 56.2694V57.3416C154.346 57.4232 154.612 57.4232 155.116 57.4433C156.719 57.4433 157.146 56.9373 157.875 55.1709L162.417 43.0813H161.141L157.915 52.0211L154.468 43.0813H153.109L157.286 53.5264ZM150.305 39.9365H149.03V43.0838H147.205V44.1584H149.03V51.3306C149.01 53.1209 149.598 53.6858 151.301 53.6858C151.688 53.6858 152.052 53.6469 152.435 53.6469V52.5509C152.072 52.5923 151.707 52.6137 151.342 52.6137C150.428 52.5509 150.305 52.0638 150.305 51.2289V44.1584H152.435V43.0838H150.305V39.9365ZM144.547 41.1115H145.821V39.0602H144.547V41.1115ZM144.547 53.564H145.821V43.0838H144.547V53.564ZM142.313 46.1495C142.231 43.8747 140.571 42.7775 138.479 42.7775C136.632 42.7775 134.545 43.5885 134.545 45.7227C134.545 47.5104 135.8 48.0804 137.463 48.526L139.109 48.8901C140.265 49.1776 141.404 49.5843 141.404 50.8021C141.404 52.2634 139.739 52.7932 138.542 52.7932C136.835 52.7932 135.556 51.9006 135.454 50.1731H134.18C134.383 52.7329 136.044 53.8678 138.479 53.8678C140.428 53.8678 142.679 52.9966 142.679 50.7205C142.679 48.8914 141.161 48.0389 139.697 47.8167L137.992 47.4313C137.12 47.2041 135.82 46.7973 135.82 45.6586C135.82 44.2978 137.16 43.8521 138.297 43.8521C139.759 43.8521 140.976 44.5639 141.039 46.1483H142.313V46.1495ZM128.378 53.564H129.653V47.9799C129.653 45.8055 131.235 44.0994 133.548 44.2199V42.9432C131.661 42.8641 130.241 43.8546 129.592 45.5406H129.55V43.0838H128.378V53.564ZM118.596 47.5945C118.799 45.685 119.956 43.8546 122.045 43.8546C124.116 43.8546 125.313 45.6637 125.375 47.5945H118.596ZM126.651 48.6691C126.752 45.7227 125.415 42.7787 122.045 42.7787C118.718 42.7787 117.32 45.5632 117.32 48.3264C117.32 51.313 118.718 53.8703 122.045 53.8703C124.684 53.8703 126.062 52.4906 126.61 50.1116H125.335C124.929 51.6972 123.913 52.7957 122.045 52.7957C119.59 52.7957 118.616 50.5397 118.596 48.6704H126.651V48.6691ZM111.313 53.564H112.672L116.586 43.0838H115.267L112.024 52.2872H111.981L108.695 43.0838H107.276L111.313 53.564ZM104.719 41.1115H105.994V39.0602H104.719V41.1115ZM104.719 53.564H105.994V43.0838H104.719V53.564ZM93.7848 53.564H95.0611V47.4501C95.1012 45.3975 96.3199 43.8546 98.3484 43.8546C100.418 43.8546 101.008 45.2167 101.008 47.0245V53.564H102.283V46.8199C102.283 44.3204 101.392 42.7787 98.4499 42.7787C96.968 42.7787 95.5676 43.6324 95.1012 44.8903H95.0611V43.0838H93.7848V53.564V53.564ZM80.0089 48.3465C80.0089 51.3319 81.6087 53.8703 85.6281 53.8703C89.6663 53.8703 91.2661 51.3319 91.2661 48.3465V39.0627H89.8883V48.0414C89.9096 51.4135 88.3061 52.6928 85.6281 52.6928C82.9677 52.6928 81.3654 51.4122 81.3855 48.0414V39.0627H80.0089V48.3465Z" fill="white" fill-opacity="0.75"/>
</svg>
