<svg width="209" height="74" viewBox="0 0 209 74" fill="none" xmlns="http://www.w3.org/2000/svg">
<path d="M19.2587 6.1955H4.74445V6.97854H19.2587V6.1955Z" fill="white" fill-opacity="0.75"/>
<path d="M49.579 41.6172H48.2102V40.9318H49.579V41.6172ZM49.579 47.075H48.2102V42.6297H49.579V47.075ZM50.715 39.4088H47.0731V48.1994H50.715V39.4088Z" fill="white" fill-opacity="0.75"/>
<path d="M5.69164 28.8131H7.64156V34.4506H5.69164V28.8131ZM5.69164 25.9373H7.64156V27.6625H5.69164V25.9373ZM4.71252 35.5999H8.62063V24.5202H4.71252V35.5999Z" fill="white" fill-opacity="0.75"/>
<path d="M11.0042 28.8131H12.9541V34.4506H11.0042V28.8131ZM11.0042 25.9373H12.9541V27.6625H11.0042V25.9373ZM10.0239 35.5999H13.9332V24.5202H10.0239V35.5999Z" fill="white" fill-opacity="0.75"/>
<path d="M44.2011 30.7158H42.8311V30.0744H44.2011V30.7158ZM44.2011 35.8095H42.8311V31.6605H44.2011V35.8095ZM45.3383 28.6526H41.6951V36.8601H45.3383V28.6526Z" fill="white" fill-opacity="0.75"/>
<path d="M18.2796 43.1328H16.3285V42.0893L18.2796 42.6819V43.1328ZM18.2796 49.1606H16.3274V44.0799H18.2796V49.1606ZM15.3506 43.1328H8.65611V41.7645C10.8876 41.2124 13.1191 41.2434 15.3506 41.7562V43.1328ZM15.3506 49.1606H8.65611V44.0799H15.3506V49.1606ZM7.64139 43.1328H5.69622V42.6819L7.64139 42.0893V43.1328ZM7.64139 49.1606H5.69622V44.0799H7.64139V49.1606ZM19.2576 42.2131C14.4191 39.7311 9.58175 39.8798 4.74445 42.2131V50.0184H19.2576V42.2131Z" fill="white" fill-opacity="0.75"/>
<path d="M12.9541 11.3831H11.0042V9.65779H12.9541V11.3831ZM12.9541 18.1687H11.0042V12.5336H12.9541V18.1687ZM10.0239 19.3205H13.9332V8.24069H10.0239V19.3205Z" fill="white" fill-opacity="0.75"/>
<path d="M38.8184 30.7158H37.4496V30.0744H38.8184V30.7158ZM38.8184 35.8095H37.4496V31.6605H38.8184V35.8095ZM39.9555 28.6526H36.3136V36.8601H39.9555V28.6526Z" fill="white" fill-opacity="0.75"/>
<path d="M44.2011 41.6172H42.8311V40.9318H44.2011V41.6172ZM44.2011 47.075H42.8311V42.6297H44.2011V47.075ZM45.3383 39.4088H41.6951V48.1994H45.3383V39.4088Z" fill="white" fill-opacity="0.75"/>
<path d="M49.579 30.7158H48.2102V30.0744H49.579V30.7158ZM49.579 35.8095H48.2102V31.6605H49.579V35.8095ZM50.715 28.6526H47.0731V36.8601H50.715V28.6526Z" fill="white" fill-opacity="0.75"/>
<path d="M19.2587 22.4787H4.74445V23.2593H19.2587V22.4787Z" fill="white" fill-opacity="0.75"/>
<path d="M38.8184 19.9869H37.4496V19.3456H38.8184V19.9869ZM38.8184 25.0818H37.4496V20.9328H38.8184V25.0818ZM39.9555 17.9249H36.3136V26.13H39.9555V17.9249Z" fill="white" fill-opacity="0.75"/>
<path d="M7.64156 11.3831H5.69164V9.6578H7.64156V11.3831ZM7.64156 18.1688H5.69164V12.5337H7.64156V18.1688ZM8.62063 8.2395H4.71252V19.3193H8.62063V8.2395Z" fill="white" fill-opacity="0.75"/>
<path d="M44.2011 19.9869H42.8311V19.3456H44.2011V19.9869ZM44.2011 25.0818H42.8311V20.9328H44.2011V25.0818ZM45.3383 17.9249H41.6951V26.13H45.3383V17.9249Z" fill="white" fill-opacity="0.75"/>
<path d="M33.4297 19.9869H32.0609V19.3456H33.4297V19.9869ZM33.4297 25.0818H32.0609V20.9328H33.4297V25.0818ZM34.5657 17.9249H30.9238V26.13H34.5657V17.9249Z" fill="white" fill-opacity="0.75"/>
<path d="M49.579 19.9869H48.2102V19.3456H49.579V19.9869ZM49.579 25.0818H48.2102V20.9328H49.579V25.0818ZM50.715 17.9249H47.0731V26.13H50.715V17.9249Z" fill="white" fill-opacity="0.75"/>
<path d="M16.3156 28.8131H18.2667V34.4506H16.3156V28.8131ZM16.3156 25.9373H18.2667V27.6625H16.3156V25.9373ZM15.3389 35.5999H19.2458V24.5202H15.3389V35.5999Z" fill="white" fill-opacity="0.75"/>
<path d="M18.2667 11.3831H16.3156V9.65779H18.2667V11.3831ZM18.2667 18.1687H16.3156V12.5336H18.2667V18.1687ZM15.3389 19.3205H19.2458V8.24069H15.3389V19.3205Z" fill="white" fill-opacity="0.75"/>
<path d="M38.8184 41.6172H37.4496V40.9318H38.8184V41.6172ZM38.8184 47.075H37.4496V42.6297H38.8184V47.075ZM39.9555 39.4088H36.3136V48.1994H39.9555V39.4088Z" fill="white" fill-opacity="0.75"/>
<path d="M164.6 31.6605H165.968V35.8095H164.6V31.6605ZM164.6 30.0744H165.968V30.7158H164.6V30.0744ZM163.463 36.8601H167.106V28.6526H163.463V36.8601Z" fill="white" fill-opacity="0.75"/>
<path d="M151.365 6.1955H136.852V6.97854H151.365V6.1955Z" fill="white" fill-opacity="0.75"/>
<path d="M169.983 31.6605H171.351V35.8095H169.983V31.6605ZM169.983 30.0744H171.351V30.7158H169.983V30.0744ZM168.846 36.8601H172.488V28.6526H168.846V36.8601Z" fill="white" fill-opacity="0.75"/>
<path d="M159.222 42.6293H160.59V47.0745H159.222V42.6293ZM159.222 40.9314H160.59V41.6167H159.222V40.9314ZM158.085 48.1965H161.727V39.406H158.085V48.1965Z" fill="white" fill-opacity="0.75"/>
<path d="M159.222 31.6605H160.59V35.8095H159.222V31.6605ZM159.222 30.0744H160.59V30.7158H159.222V30.0744ZM158.085 36.8601H161.727V28.6526H158.085V36.8601Z" fill="white" fill-opacity="0.75"/>
<path d="M169.983 42.6293H171.351V47.0745H169.983V42.6293ZM169.983 40.9314H171.351V41.6167H169.983V40.9314ZM168.846 48.1965H172.488V39.406H168.846V48.1965Z" fill="white" fill-opacity="0.75"/>
<path d="M164.6 42.6293H165.968V47.0745H164.6V42.6293ZM164.6 40.9314H165.968V41.6167H164.6V40.9314ZM163.463 48.1965H167.106V39.406H163.463V48.1965Z" fill="white" fill-opacity="0.75"/>
<path d="M164.6 20.9305H165.968V25.0794H164.6V20.9305ZM164.6 19.3444H165.968V19.9857H164.6V19.3444ZM163.463 26.13H167.106V17.9249H163.463V26.13Z" fill="white" fill-opacity="0.75"/>
<path d="M159.222 20.9305H160.59V25.0794H159.222V20.9305ZM159.222 19.3444H160.59V19.9857H159.222V19.3444ZM158.085 26.13H161.727V17.9249H158.085V26.13Z" fill="white" fill-opacity="0.75"/>
<path d="M143.111 28.8131H145.063V34.4506H143.111V28.8131ZM143.111 25.9373H145.063V27.6625H143.111V25.9373ZM142.132 35.5999H146.04V24.5202H142.132V35.5999Z" fill="white" fill-opacity="0.75"/>
<path d="M150.375 11.3831H148.424V9.65779H150.375V11.3831ZM150.375 18.1687H148.424V12.5336H150.375V18.1687ZM147.445 19.3205H151.353V8.24069H147.445V19.3205Z" fill="white" fill-opacity="0.75"/>
<path d="M148.425 28.8131H150.376V34.4506H148.425V28.8131ZM148.425 25.9373H150.376V27.6625H148.425V25.9373ZM147.445 35.5999H151.353V24.5202H147.445V35.5999Z" fill="white" fill-opacity="0.75"/>
<path d="M137.799 28.8131H139.748V34.4506H137.799V28.8131ZM137.799 25.9373H139.748V27.6625H137.799V25.9373ZM136.819 35.5999H140.728V24.5202H136.819V35.5999Z" fill="white" fill-opacity="0.75"/>
<path d="M151.365 22.4787H136.852V23.2593H151.365V22.4787Z" fill="white" fill-opacity="0.75"/>
<path d="M145.062 11.3831H143.11V9.65779H145.062V11.3831ZM145.062 18.1687H143.11V12.5336H145.062V18.1687ZM142.132 19.3205H146.04V8.24069H142.132V19.3205Z" fill="white" fill-opacity="0.75"/>
<path d="M195.851 28.8131H197.801V34.4506H195.851V28.8131ZM195.851 25.9373H197.801V27.6625H195.851V25.9373ZM194.871 35.5999H198.78V24.5202H194.871V35.5999Z" fill="white" fill-opacity="0.75"/>
<path d="M204.106 22.4787H189.591V23.2593H204.106V22.4787Z" fill="white" fill-opacity="0.75"/>
<path d="M139.748 11.3831H137.799V9.6578H139.748V11.3831ZM139.748 18.1688H137.799V12.5337H139.748V18.1688ZM140.728 8.2395H136.819V19.3193H140.728V8.2395Z" fill="white" fill-opacity="0.75"/>
<path d="M197.801 11.3831H195.851V9.65779H197.801V11.3831ZM197.801 18.1687H195.851V12.5336H197.801V18.1687ZM194.871 19.3205H198.78V8.24069H194.871V19.3205Z" fill="white" fill-opacity="0.75"/>
<path d="M201.163 28.8131H203.115V34.4506H201.163V28.8131ZM201.163 25.9373H203.115V27.6625H201.163V25.9373ZM200.186 35.5999H204.094V24.5202H200.186V35.5999Z" fill="white" fill-opacity="0.75"/>
<path d="M207.437 36.8589H186.229V1.42067H189.59V3.68613H204.103V1.42067H207.437V36.8589ZM207.437 51.4607H186.229V38.0524H207.437V51.4607ZM207.437 59.1447H186.229V52.6541H207.437V59.1447ZM155.836 51.4571L155.831 16.3425H180.076L180.109 51.4571H155.836ZM154.699 36.8589H133.49V1.42067H136.851V3.68613H151.365V1.42067H154.699V36.8589ZM154.699 51.4607H133.49V38.0524H154.699V51.4607ZM154.699 59.1447H133.49V52.6541H154.699V59.1447ZM130.81 56.7531H120.184V56.0047H130.81V56.7531ZM119.478 54.2556H130.433V55.004H119.478V54.2556ZM119.099 57.7478H89.6844L89.6891 55.668L90.9986 52.6636H92.4945L91.3253 55.668V56.5806H117.463V55.668L116.282 52.6636H117.786L119.099 55.668V57.7478V57.7478ZM89.3303 55.0052H78.2797V54.2568H89.3303V55.0052ZM88.6304 56.7531H77.9209V56.0047H88.6304V56.7531ZM78.6183 39.617H89.9541V51.4571H87.6394V42.4012C85.6265 41.7896 83.401 41.7028 80.9211 42.4012V51.4571H78.6183V39.617V39.617ZM89.9553 53.4132H78.6694V52.6636H89.9553V53.4132ZM86.4916 51.4571H82.0654V49.6402H86.4916V51.4571ZM84.0783 48.5372H82.0654V45.145H84.0783V48.5372ZM86.494 48.5372H84.487V45.145H86.494V48.5372ZM86.4868 43.7434H82.0725V42.9533C83.704 42.6618 85.1643 42.6737 86.4868 42.9533V43.7434ZM78.6243 16.3425H89.9695L89.9541 38.4248H78.6183L78.6243 16.3425ZM110.193 43.3757V42.5047L112.968 42.8902V43.3757H110.193ZM112.968 48.7907H110.195V44.587H112.968V48.7907ZM103.972 43.3757H99.321V42.4024L103.972 42.1597V43.3757ZM104.761 43.3757V42.1597L109.411 42.4024V43.3757H104.761V43.3757ZM104.761 48.7907V51.4821H103.985V48.7907H99.3328V44.587H103.985V48.7907H104.761ZM104.761 44.587H109.411V48.7907H104.761V44.587ZM98.5498 48.7907H95.7764V44.587H98.5498V48.7907ZM98.5391 43.3757H95.7657V42.8902L98.5391 42.5035V43.3757ZM101.181 53.644V55.668H93.343V52.6624H115.436V55.668H107.522V53.644H101.181ZM91.0045 39.6134H117.726V51.4571H113.707V42.4012C107.798 41.253 101.573 41.1317 95.0255 42.4012V51.4571H91.0033V39.6134H91.0045ZM91.0081 9.68413H92.1167L92.1191 10.6301H94.713V9.68413H95.818V38.4224H91.0081V9.68413ZM97.0621 16.3425H111.644L111.658 38.4248H97.055L97.0621 16.3425ZM112.906 9.68413H114.015L114.018 10.6301H116.611L116.615 9.68413H117.718V38.4236H112.907V9.68413H112.906ZM118.774 52.6636H130.063V53.4132H118.774V52.6636ZM124.648 45.145H126.656V48.5372H124.648V45.145ZM126.653 51.4571H122.224V49.6402H126.653V51.4571ZM122.234 43.7434V42.9533C123.862 42.6618 125.326 42.6737 126.648 42.9533V43.7434H122.234ZM124.241 48.5372H122.225V45.145H124.241V48.5372ZM118.78 39.6134H130.115V51.4571H127.801V42.4012C125.788 41.7896 123.563 41.7028 121.08 42.4012V51.4571H118.78V39.6134V39.6134ZM118.78 16.3425H130.115V38.4248H118.78V16.3425ZM75.2782 36.8589H54.067V1.42067H57.4297V3.68613H71.944V1.42067H75.2782V36.8589V36.8589ZM75.2782 51.4607H54.0682V38.0524H75.2782V51.4607ZM75.2782 59.1447H54.0682V52.6541H75.2782V59.1447ZM52.962 51.4571H28.6922V16.3425H52.962V51.4571ZM22.5918 36.8589H1.38181V1.42067H4.74452V3.68613H19.2577V1.42067H22.5918V36.8589ZM22.5918 51.4607H1.38181V38.0524H22.5918V51.4607ZM22.5918 59.1447H1.38181V52.6541H22.5918V59.1447ZM203.084 0L203.067 1.42067C198.94 -0.304599 194.713 -0.534239 190.337 1.42067V0H185.107H185.102V0.0130902L180.891 12.5624H180.23L180.998 10.2326L155.829 10.2291V0H150.371L150.356 1.42067C146.233 -0.304599 142.011 -0.534239 137.64 1.42067V0H132.418H132.411V0.0297479L130.124 10.2279H118.998V8.21586H116.183L116.016 9.35454L115.01 9.36525L114.855 8.21586H112.056V10.2279H104.403H104.395H96.7401V8.21586H93.943L93.7862 9.36525L92.7809 9.35454L92.6158 8.21586H89.7985V10.2279H78.6219L76.3952 0.0785318V0H76.3785H71.1645V1.42067C66.7895 -0.534239 62.5653 -0.304599 58.4409 1.42067L58.4255 0H52.9596V10.2326H27.8438L28.5651 12.5624H27.9032L23.7135 0.0749597V0.00118919H23.6874H18.4758V1.42186C14.0959 -0.53305 9.86463 -0.30341 5.73433 1.42186L5.71888 0.00118919H0.25061V60.3393H23.7135V60.3167L28.6922 56.5794H52.9655V60.3381H76.3952L76.4938 60.3345L77.8412 57.7478H88.6304V58.7401H120.169V57.7478H130.926L131.743 60.3345H132.411V60.3381H155.828V56.5794H180.101L185.101 60.331V60.3381H208.546V0H203.084Z" fill="white" fill-opacity="0.75"/>
<path d="M204.106 6.1955H189.591V6.97854H204.106V6.1955Z" fill="white" fill-opacity="0.75"/>
<path d="M203.115 11.3831H201.163V9.65779H203.115V11.3831ZM203.115 18.1687H201.163V12.5336H203.115V18.1687ZM200.186 19.3205H204.094V8.24069H200.186V19.3205Z" fill="white" fill-opacity="0.75"/>
<path d="M190.538 28.8131H192.489V34.4506H190.538V28.8131ZM190.538 25.9373H192.489V27.6625H190.538V25.9373ZM189.559 35.5999H193.469V24.5202H189.559V35.5999Z" fill="white" fill-opacity="0.75"/>
<path d="M169.983 20.9305H171.351V25.0794H169.983V20.9305ZM169.983 19.3444H171.351V19.9857H169.983V19.3444ZM168.846 26.13H172.488V17.9249H168.846V26.13Z" fill="white" fill-opacity="0.75"/>
<path d="M175.373 31.6605H176.739V35.8095H175.373V31.6605ZM175.373 30.0744H176.739V30.7158H175.373V30.0744ZM174.236 36.8601H177.876V28.6526H174.236V36.8601Z" fill="white" fill-opacity="0.75"/>
<path d="M175.373 42.6293H176.739V47.0745H175.373V42.6293ZM175.373 40.9314H176.739V41.6167H175.373V40.9314ZM174.236 48.1965H177.876V39.406H174.236V48.1965Z" fill="white" fill-opacity="0.75"/>
<path d="M175.373 20.9305H176.739V25.0794H175.373V20.9305ZM175.373 19.3444H176.739V19.9857H175.373V19.3444ZM174.236 26.13H177.876V17.9249H174.236V26.13Z" fill="white" fill-opacity="0.75"/>
<path d="M203.126 43.1328H201.175V42.0893L203.126 42.6819V43.1328ZM203.126 49.1606H201.174V44.0799H203.126V49.1606ZM200.199 43.1328H193.503V41.7645C195.734 41.2124 197.967 41.2434 200.199 41.7562V43.1328ZM200.199 49.1606H193.503V44.0799H200.199V49.1606ZM192.488 43.1328H190.544V42.6819L192.488 42.0893V43.1328ZM192.488 49.1606H190.544V44.0799H192.488V49.1606ZM204.104 42.2131C199.266 39.7311 194.43 39.8798 189.591 42.2131V50.0184H204.104V42.2131Z" fill="white" fill-opacity="0.75"/>
<path d="M192.488 11.3831H190.537V9.6578H192.488V11.3831ZM192.488 18.1688H190.537V12.5337H192.488V18.1688ZM193.467 8.2395H189.558V19.3193H193.467V8.2395Z" fill="white" fill-opacity="0.75"/>
<path d="M86.2979 20.9258H87.6668V25.0736H86.2979V20.9258ZM86.2979 19.3398H87.6668V19.9811H86.2979V19.3398ZM85.1608 26.1242H88.8039V17.9191H85.1608V26.1242Z" fill="white" fill-opacity="0.75"/>
<path d="M71.9442 22.4787H57.4299V23.2593H71.9442V22.4787Z" fill="white" fill-opacity="0.75"/>
<path d="M65.6404 11.3831H63.6893V9.65779H65.6404V11.3831ZM65.6404 18.1687H63.6893V12.5336H65.6404V18.1687ZM62.7102 19.3205H66.6195V8.24069H62.7102V19.3205Z" fill="white" fill-opacity="0.75"/>
<path d="M71.9442 6.1955H57.4299V6.97854H71.9442V6.1955Z" fill="white" fill-opacity="0.75"/>
<path d="M70.9542 11.3831H69.0031V9.65779H70.9542V11.3831ZM70.9542 18.1687H69.0031V12.5336H70.9542V18.1687ZM68.024 19.3205H71.9321V8.24069H68.024V19.3205Z" fill="white" fill-opacity="0.75"/>
<path d="M121.068 31.653H122.437V35.802H121.068V31.653ZM121.068 30.0681H122.437V30.7082H121.068V30.0681ZM119.933 36.8526H123.575V28.6462H119.933V36.8526Z" fill="white" fill-opacity="0.75"/>
<path d="M126.459 31.653H127.828V35.802H126.459V31.653ZM126.459 30.0681H127.828V30.7082H126.459V30.0681ZM125.322 36.8526H128.963V28.6462H125.322V36.8526Z" fill="white" fill-opacity="0.75"/>
<path d="M121.068 20.9258H122.437V25.0736H121.068V20.9258ZM121.068 19.3398H122.437V19.9811H121.068V19.3398ZM119.933 26.1242H123.575V17.9191H119.933V26.1242Z" fill="white" fill-opacity="0.75"/>
<path d="M58.3768 28.8131H60.3278V34.4506H58.3768V28.8131ZM58.3768 25.9373H60.3278V27.6625H58.3768V25.9373ZM57.3976 35.5999H61.3058V24.5202H57.3976V35.5999Z" fill="white" fill-opacity="0.75"/>
<path d="M70.9651 43.1328H69.014V42.0893L70.9651 42.6819V43.1328ZM70.9651 49.1606H69.0128V44.0799H70.9651V49.1606ZM68.0384 43.1328H61.3427V41.7645C63.5742 41.2124 65.8057 41.2434 68.0384 41.7562V43.1328ZM68.0384 49.1606H61.3427V44.0799H68.0384V49.1606ZM60.3268 43.1328H58.3828V42.6819L60.3268 42.0893V43.1328ZM60.3268 49.1606H58.3828V44.0799H60.3268V49.1606ZM71.9442 42.2131C67.1057 39.7311 62.2695 39.8798 57.431 42.2131V50.0184H71.9442V42.2131Z" fill="white" fill-opacity="0.75"/>
<path d="M33.4297 41.6172H32.0609V40.9318H33.4297V41.6172ZM33.4297 47.075H32.0609V42.6297H33.4297V47.075ZM34.5657 39.4088H30.9238V48.1994H34.5657V39.4088Z" fill="white" fill-opacity="0.75"/>
<path d="M60.3277 11.3831H58.3767V9.6578H60.3277V11.3831ZM60.3277 18.1688H58.3767V12.5337H60.3277V18.1688ZM61.3068 8.2395H57.3987V19.3193H61.3068V8.2395Z" fill="white" fill-opacity="0.75"/>
<path d="M126.459 20.9258H127.828V25.0736H126.459V20.9258ZM126.459 19.3398H127.828V19.9811H126.459V19.3398ZM125.322 26.1242H128.963V17.9191H125.322V26.1242Z" fill="white" fill-opacity="0.75"/>
<path d="M63.6893 28.8131H65.6404V34.4506H63.6893V28.8131ZM63.6893 25.9373H65.6404V27.6625H63.6893V25.9373ZM62.7102 35.5999H66.6195V24.5202H62.7102V35.5999Z" fill="white" fill-opacity="0.75"/>
<path d="M69.0031 28.8131H70.9542V34.4506H69.0031V28.8131ZM69.0031 25.9373H70.9542V27.6625H69.0031V25.9373ZM68.024 35.5999H71.9321V24.5202H68.024V35.5999Z" fill="white" fill-opacity="0.75"/>
<path d="M116.371 17.1813H115.966V26.299H116.371V17.1813Z" fill="white" fill-opacity="0.75"/>
<path d="M92.7584 17.1813H92.352V26.299H92.7584V17.1813Z" fill="white" fill-opacity="0.75"/>
<path d="M94.473 17.1813H94.0679V26.299H94.473V17.1813Z" fill="white" fill-opacity="0.75"/>
<path d="M93.6151 17.1813H93.2111V26.299H93.6151V17.1813Z" fill="white" fill-opacity="0.75"/>
<path d="M80.9081 31.653H82.2758V35.802H80.9081V31.653ZM80.9081 30.0681H82.2758V30.7082H80.9081V30.0681ZM79.7709 36.8526H83.4129V28.6462H79.7709V36.8526Z" fill="white" fill-opacity="0.75"/>
<path d="M80.9081 20.9258H82.2758V25.0736H80.9081V20.9258ZM80.9081 19.3398H82.2758V19.9811H80.9081V19.3398ZM79.7709 26.1242H83.4129V17.9191H79.7709V26.1242Z" fill="white" fill-opacity="0.75"/>
<path d="M114.656 17.1813H114.252V26.299H114.656V17.1813Z" fill="white" fill-opacity="0.75"/>
<path d="M86.2979 31.653H87.6668V35.802H86.2979V31.653ZM86.2979 30.0681H87.6668V30.7082H86.2979V30.0681ZM85.1608 36.8526H88.8039V28.6462H85.1608V36.8526Z" fill="white" fill-opacity="0.75"/>
<path d="M33.4297 30.7158H32.0609V30.0744H33.4297V30.7158ZM33.4297 35.8095H32.0609V31.6605H33.4297V35.8095ZM34.5657 28.6526H30.9238V36.8601H34.5657V28.6526Z" fill="white" fill-opacity="0.75"/>
<path d="M99.498 31.6497H102.069V35.7975H99.498V31.6497ZM99.498 30.0636H102.069V30.705H99.498V30.0636ZM98.3692 36.8458H103.196V28.6406H98.3692V36.8458Z" fill="white" fill-opacity="0.75"/>
<path d="M150.39 43.1328H148.436V42.0893L150.39 42.6819V43.1328ZM150.39 49.1606H148.436V44.0799H150.39V49.1606ZM147.459 43.1328H140.763V41.7645C142.995 41.2124 145.226 41.2434 147.459 41.7562V43.1328ZM147.459 49.1606H140.763V44.0799H147.459V49.1606ZM139.748 43.1328H137.804V42.6819L139.748 42.0893V43.1328ZM139.748 49.1606H137.804V44.0799H139.748V49.1606ZM151.365 42.2131C146.528 39.7311 141.69 39.8798 136.852 42.2131V50.0184H151.365V42.2131Z" fill="white" fill-opacity="0.75"/>
<path d="M106.643 20.9258H109.214V25.0736H106.643V20.9258ZM106.643 19.3398H109.214V19.9811H106.643V19.3398ZM105.515 26.1242H110.342V17.9191H105.515V26.1242Z" fill="white" fill-opacity="0.75"/>
<path d="M115.513 17.1813H115.108V26.299H115.513V17.1813Z" fill="white" fill-opacity="0.75"/>
<path d="M99.498 20.9258H102.069V25.0736H99.498V20.9258ZM99.498 19.3398H102.069V19.9811H99.498V19.3398ZM98.3692 26.1242H103.196V17.9191H98.3692V26.1242Z" fill="white" fill-opacity="0.75"/>
<path d="M106.643 31.6497H109.214V35.7975H106.643V31.6497ZM106.643 30.0636H109.214V30.705H106.643V30.0636ZM105.515 36.8458H110.342V28.6406H105.515V36.8458Z" fill="white" fill-opacity="0.75"/>
<path d="M207.546 65.1474H203.659V65.2652C203.919 65.3259 204.091 65.521 204.176 65.8482C204.224 66.0398 204.249 66.3729 204.249 66.85V72.0854C204.249 72.5351 204.222 72.8564 204.169 73.0479C204.084 73.3406 203.914 73.5191 203.66 73.5786V73.6976H207.828C208.028 73.6976 208.161 73.7535 208.228 73.8666L209 70.6314L208.91 70.5921C208.341 72.2638 207.432 73.0991 206.185 73.0991C205.791 73.0991 205.536 73.017 205.421 72.8528C205.306 72.6874 205.248 72.2924 205.248 71.6701V68.1874C205.915 68.1874 206.347 68.2398 206.546 68.3433C206.911 68.5337 207.168 68.9882 207.319 69.7069L207.391 69.6688L207.037 66.7596L206.956 66.7965C206.956 67.1344 206.868 67.3617 206.692 67.4723C206.583 67.5437 206.389 67.577 206.111 67.577H205.248C205.248 66.762 205.263 66.3039 205.293 66.1992C205.378 65.8958 205.641 65.7447 206.083 65.7447C206.616 65.7447 207.088 65.9148 207.5 66.2516C207.912 66.5895 208.203 67.0535 208.371 67.6425L208.445 67.6044L208.035 65.0046C207.951 65.0998 207.787 65.1474 207.546 65.1474ZM200.605 66.9655C199.866 66.0992 199.498 65.5888 199.498 65.4329C199.498 65.3378 199.561 65.2818 199.688 65.264V65.1462H197.299V65.264C197.566 65.3163 197.737 65.5055 197.818 65.8339C197.865 66.0338 197.891 66.3717 197.891 66.8489V72.0842C197.891 72.5256 197.864 72.8469 197.809 73.0467C197.725 73.3502 197.555 73.5263 197.301 73.5774V73.6964H199.07V73.5774C198.798 73.5441 198.622 73.3573 198.545 73.0194C198.502 72.8469 198.481 72.5042 198.481 71.9937V66.1897L201.35 69.6022C201.587 69.8794 201.726 70.0793 201.77 70.2006C201.824 70.3482 201.85 70.6337 201.85 71.0573V72.0842C201.85 72.5434 201.824 72.8683 201.77 73.0586C201.684 73.3621 201.509 73.5334 201.242 73.5774V73.6964H203.031V73.5774C202.765 73.5263 202.589 73.3359 202.506 73.0075C202.464 72.8338 202.441 72.4959 202.441 71.9926V66.7584C202.441 66.3158 202.468 65.9946 202.523 65.7958C202.607 65.4924 202.777 65.3163 203.031 65.264V65.1462H201.242V65.264C201.515 65.3056 201.694 65.496 201.778 65.8339C201.827 66.0255 201.852 66.3634 201.852 66.8489V68.3957C201.221 67.6758 200.805 67.1999 200.605 66.9655ZM196.111 65.8101C196.194 65.5055 196.365 65.3247 196.62 65.264V65.1462H194.439V65.264C194.706 65.3163 194.879 65.5055 194.957 65.8339C195.006 66.0338 195.031 66.3717 195.031 66.8489V72.0842C195.031 72.5256 195.004 72.8469 194.949 73.0467C194.865 73.3585 194.695 73.5346 194.441 73.5774V73.6964H196.621V73.5774C196.352 73.5263 196.181 73.3359 196.102 73.0075C196.053 72.8088 196.029 72.4709 196.029 71.9926V66.7715C196.029 66.3206 196.055 65.9993 196.111 65.8101ZM193.795 71.1882C193.353 72.5399 192.682 73.2157 191.787 73.2157C191.014 73.2157 190.38 72.8088 189.89 71.9937C189.399 71.1799 189.154 70.1495 189.154 68.9013C189.154 67.9316 189.343 67.1475 189.721 66.5502C190.1 65.9517 190.6 65.6531 191.225 65.6531C191.667 65.6531 192.07 65.8077 192.434 66.1147C192.798 66.4229 193.057 66.8346 193.214 67.3557L193.287 67.3165L192.87 64.8606C192.809 65.0427 192.693 65.1343 192.516 65.1343C192.406 65.1343 192.159 65.1057 191.775 65.0498C191.39 64.9927 191.141 64.9665 191.026 64.9665C190.153 64.9665 189.443 65.3378 188.891 66.0826C188.34 66.8274 188.064 67.7972 188.064 68.993C188.064 70.4481 188.394 71.6308 189.051 72.5387C189.708 73.4489 190.556 73.9022 191.598 73.9022C191.7 73.9022 191.936 73.8844 192.303 73.8511C192.669 73.8166 192.904 73.7987 193.008 73.7987C193.08 73.7987 193.141 73.8166 193.187 73.8511L193.888 71.2394L193.795 71.1882ZM186.845 65.8101C186.93 65.5055 187.101 65.3247 187.355 65.264V65.1462H185.176V65.264C185.442 65.3163 185.614 65.5055 185.693 65.8339C185.741 66.0338 185.766 66.3717 185.766 66.8489V72.0842C185.766 72.5256 185.739 72.8469 185.684 73.0467C185.599 73.3585 185.43 73.5346 185.176 73.5774V73.6964H187.355V73.5774C187.088 73.5263 186.917 73.3359 186.837 73.0075C186.788 72.8088 186.763 72.4709 186.763 71.9926V66.7715C186.765 66.3206 186.791 65.9993 186.845 65.8101ZM180.28 66.1088C180.371 65.866 180.57 65.7435 180.879 65.7435C181.612 65.7435 182.208 66.1219 182.664 66.8798C183.121 67.6389 183.35 68.611 183.35 69.7973C183.35 70.8277 183.158 71.6356 182.773 72.2198C182.388 72.8052 181.843 73.0967 181.134 73.0967C180.68 73.0967 180.402 72.9718 180.298 72.7207C180.232 72.5649 180.198 72.1318 180.198 71.4214V67.1082C180.198 66.5883 180.226 66.2563 180.28 66.1088ZM178.609 65.264C178.876 65.3163 179.048 65.5055 179.128 65.8339C179.175 66.0338 179.2 66.3717 179.2 66.8489V72.0842C179.2 72.5339 179.173 72.8552 179.118 73.0467C179.035 73.3394 178.864 73.5179 178.61 73.5774V73.6964H181.107C181.677 73.6964 182.134 73.644 182.48 73.5405C183.044 73.3668 183.51 72.9171 183.884 72.1877C184.255 71.4619 184.443 70.6326 184.443 69.7057C184.443 68.329 184.102 67.2248 183.421 66.3931C182.74 65.5626 181.858 65.1462 180.773 65.1462H178.611V65.264H178.609ZM176.846 65.1474H172.96V65.2652C173.22 65.3259 173.392 65.521 173.478 65.8482C173.525 66.0398 173.551 66.3729 173.551 66.85V72.0854C173.551 72.5351 173.524 72.8564 173.469 73.0479C173.386 73.3406 173.215 73.5191 172.961 73.5786V73.6976H177.13C177.33 73.6976 177.463 73.7535 177.53 73.8666L178.302 70.6314L178.21 70.5921C177.641 72.2638 176.733 73.0991 175.486 73.0991C175.092 73.0991 174.838 73.017 174.723 72.8528C174.606 72.6874 174.549 72.2924 174.549 71.6701V68.1874C175.216 68.1874 175.649 68.2398 175.848 68.3433C176.213 68.5337 176.468 68.9882 176.619 69.7069L176.693 69.6688L176.339 66.7596L176.258 66.7965C176.258 67.1344 176.17 67.3617 175.993 67.4723C175.884 67.5437 175.69 67.577 175.413 67.577H174.549C174.549 66.762 174.564 66.3039 174.595 66.1992C174.679 65.8958 174.943 65.7447 175.385 65.7447C175.917 65.7447 176.39 65.9148 176.801 66.2516C177.214 66.5895 177.503 67.0535 177.672 67.6425L177.746 67.6044L177.336 65.0046C177.253 65.0998 177.088 65.1474 176.846 65.1474ZM170.716 66.0457V72.0842C170.716 72.5173 170.689 72.8373 170.634 73.0467C170.55 73.3585 170.38 73.5346 170.126 73.5774V73.6964H172.306V73.5774C172.039 73.5263 171.866 73.3311 171.787 72.9932C171.738 72.7945 171.714 72.4613 171.714 71.9926V66.7584C171.714 66.3075 171.74 65.9874 171.795 65.7958C171.88 65.5008 172.051 65.3247 172.305 65.264V65.1462H170.116V65.264C170.23 65.2973 170.288 65.3889 170.288 65.5365C170.288 65.753 170.085 66.3253 169.68 67.251C169.498 67.6591 169.277 68.1529 169.016 68.7324C168.732 68.022 168.516 67.489 168.369 67.1344C168.025 66.2599 167.853 65.7221 167.853 65.5234C167.853 65.3853 167.905 65.2985 168.007 65.264V65.1462H165.709V65.264C165.976 65.3163 166.147 65.5055 166.227 65.8339C166.276 66.0338 166.3 66.3717 166.3 66.8489V72.0842C166.3 72.5256 166.273 72.8469 166.219 73.0467C166.134 73.3502 165.964 73.5263 165.71 73.5774V73.6964H167.481V73.5774C167.209 73.5441 167.033 73.3573 166.955 73.0194C166.913 72.8457 166.89 72.5042 166.89 71.9926V66.0421L168.727 70.6564L170.716 66.0457ZM161.661 65.1474H157.747V65.2652C158.007 65.3259 158.178 65.521 158.265 65.8482C158.312 66.0398 158.338 66.3729 158.338 66.85V72.0854C158.338 72.5268 158.311 72.848 158.256 73.0479C158.172 73.3513 158.002 73.5274 157.748 73.5786V73.6976H159.937V73.5929C159.66 73.55 159.481 73.3644 159.402 73.0337C159.353 72.8338 159.328 72.4923 159.328 72.008V68.1886C160.021 68.1886 160.458 68.235 160.64 68.3302C160.987 68.5123 161.246 68.9751 161.416 69.7199L161.488 69.695L161.134 66.7846L161.052 66.8227C161.052 67.1523 160.98 67.3688 160.835 67.4723C160.737 67.5437 160.563 67.577 160.308 67.577H159.338C159.338 67.6472 159.334 67.5033 159.328 67.1487V66.7715C159.328 66.3729 159.384 66.1016 159.496 65.9588C159.609 65.8161 159.837 65.7435 160.183 65.7435C160.721 65.7435 161.207 65.9232 161.639 66.2825C162.073 66.6418 162.353 67.1082 162.479 67.6794L162.553 67.6544L162.143 64.9784C162.075 65.0903 161.915 65.1474 161.661 65.1474ZM152.133 66.5764C152.479 65.9612 152.94 65.6543 153.514 65.6543C154.21 65.6543 154.791 66.1302 155.258 67.0832C155.671 67.9316 155.876 68.8799 155.876 69.9294C155.876 70.8824 155.698 71.6642 155.342 72.2745C154.984 72.8849 154.517 73.1907 153.942 73.1907C153.222 73.1907 152.641 72.7314 152.199 71.8141C151.811 71.0074 151.618 70.0638 151.618 68.9822C151.617 67.9923 151.788 67.1903 152.133 66.5764ZM156.03 72.6244C156.653 71.7974 156.966 70.7682 156.966 69.5379C156.966 68.2053 156.662 67.1106 156.052 66.2575C155.443 65.4032 154.667 64.9784 153.722 64.9784C152.807 64.9784 152.048 65.3996 151.438 66.2432C150.829 67.088 150.525 68.1553 150.525 69.4463C150.525 70.7028 150.832 71.7522 151.445 72.5958C152.061 73.4418 152.821 73.863 153.732 73.863C154.641 73.8654 155.406 73.4513 156.03 72.6244ZM146.403 66.3812C146.706 65.6888 147.009 65.3163 147.312 65.2652V65.1474H145.549V65.2652C145.817 65.2652 145.949 65.3937 145.949 65.6543C145.949 65.9315 145.745 66.5454 145.34 67.4997C145.062 68.1446 144.852 68.6277 144.707 68.9513C144.435 68.3576 144.219 67.8828 144.061 67.5247C143.685 66.668 143.496 66.079 143.496 65.7601C143.496 65.4306 143.645 65.2664 143.942 65.2664V65.1486H141.599V65.2664C141.785 65.2664 141.964 65.408 142.133 65.6935C142.26 65.9696 142.38 66.2289 142.491 66.4705L143.942 69.7473V72.0865C143.942 72.5196 143.914 72.8397 143.86 73.0491C143.777 73.3609 143.605 73.537 143.351 73.5798V73.6988H145.53V73.5798C145.258 73.5798 145.082 73.4001 145.004 73.0349C144.961 72.8445 144.941 72.4982 144.941 71.9949V69.7461L146.403 66.3812ZM141.771 67.5889L141.853 67.5509L141.407 64.9784C141.345 65.0903 141.225 65.1474 141.042 65.1474H137.21C137.029 65.1474 136.907 65.0903 136.847 64.9784L136.402 67.5509L136.482 67.5889C136.804 66.4122 137.518 65.822 138.627 65.822V72.0854C138.627 72.5446 138.602 72.873 138.553 73.0729C138.469 73.4108 138.295 73.5786 138.035 73.5786V73.6976H140.215V73.5786C139.943 73.5786 139.767 73.4025 139.689 73.0479C139.646 72.8576 139.625 72.5101 139.625 72.008V65.8232C140.736 65.822 141.45 66.4122 141.771 67.5889ZM133.388 65.7958C133.471 65.4746 133.644 65.2973 133.906 65.264V65.1462H131.725V65.264C131.992 65.3163 132.164 65.5055 132.245 65.8339C132.292 66.0338 132.317 66.3717 132.317 66.8489V72.0842C132.317 72.5256 132.29 72.8469 132.235 73.0467C132.152 73.3502 131.981 73.5263 131.727 73.5774V73.6964H135.351C135.599 73.6964 135.775 73.7523 135.877 73.8654L136.659 70.6302L136.577 70.5778C136.317 71.375 135.959 71.9925 135.505 72.4364C135.051 72.8778 134.545 73.0991 133.989 73.0991C133.541 73.0991 133.318 72.8004 133.318 72.2031V66.7596C133.315 66.298 133.339 65.9791 133.388 65.7958ZM125.985 65.8101C126.028 65.9898 126.049 66.3325 126.049 66.8346V71.0442C126.049 72.9242 126.83 73.8642 128.394 73.8642C129.344 73.8642 130.012 73.4525 130.399 72.6291C130.69 72.0068 130.835 71.0835 130.835 69.8615C130.835 69.62 130.822 69.1357 130.795 68.4064C130.769 67.6794 130.755 67.2332 130.755 67.069C130.755 65.9339 130.964 65.3318 131.381 65.2628V65.145H129.609V65.2628C129.887 65.2628 130.068 65.4389 130.145 65.7946C130.182 65.96 130.2 66.3063 130.2 66.8334V70.8872C130.2 72.3769 129.64 73.1217 128.52 73.1217C127.539 73.1217 127.05 72.3947 127.05 70.9395V66.756C127.05 66.2623 127.07 65.9291 127.113 65.7554C127.19 65.4258 127.367 65.2616 127.639 65.2616V65.1438H125.449L125.46 65.2616C125.725 65.264 125.9 65.446 125.985 65.8101ZM124.95 71.1882C124.508 72.5399 123.839 73.2157 122.944 73.2157C122.168 73.2157 121.535 72.8088 121.044 71.9937C120.554 71.1799 120.31 70.1495 120.31 68.9013C120.31 67.9316 120.498 67.1475 120.878 66.5502C121.256 65.9517 121.757 65.6531 122.381 65.6531C122.823 65.6531 123.226 65.8077 123.59 66.1147C123.953 66.4229 124.212 66.8346 124.371 67.3557L124.444 67.3165L124.026 64.8606C123.964 65.0427 123.847 65.1343 123.67 65.1343C123.561 65.1343 123.315 65.1057 122.93 65.0498C122.548 64.9927 122.297 64.9665 122.182 64.9665C121.311 64.9665 120.598 65.3378 120.046 66.0826C119.496 66.8274 119.222 67.7972 119.222 68.993C119.222 70.4481 119.548 71.6308 120.206 72.5387C120.864 73.4489 121.713 73.9022 122.754 73.9022C122.858 73.9022 123.092 73.8844 123.459 73.8511C123.825 73.8166 124.059 73.7987 124.162 73.7987C124.236 73.7987 124.295 73.8166 124.344 73.8511L125.043 71.2394L124.95 71.1882ZM114.97 69.2404L115.792 66.129L116.802 70.2792C116.341 69.5867 115.732 69.2404 114.97 69.2404ZM116.467 70.6433C117.042 71.2061 117.33 71.8819 117.33 72.6696C117.33 73.1812 117.181 73.4834 116.884 73.5786V73.6976H118.947V73.5786C118.711 73.4941 118.527 73.1764 118.392 72.6303L116.838 66.2385C116.783 66.0148 116.757 65.8446 116.757 65.7316C116.757 65.4889 116.845 65.333 117.021 65.264V65.1462H115.005V65.264C115.192 65.3247 115.286 65.4627 115.286 65.6792C115.286 65.8351 115.241 66.0874 115.151 66.4336L113.689 71.9568C113.562 72.4316 113.459 72.7624 113.38 72.942C113.221 73.299 113.032 73.5108 112.808 73.5786V73.6976H114.661V73.5786C114.522 73.5786 114.403 73.512 114.307 73.3775C114.21 73.2443 114.161 73.0765 114.161 72.8778C114.161 72.4792 114.249 71.9604 114.426 71.3179C114.515 70.9812 114.652 70.5029 114.835 69.8889C115.407 69.8889 115.953 70.1412 116.467 70.6433ZM112.071 65.1474H108.157V65.2652C108.417 65.3259 108.589 65.521 108.675 65.8482C108.724 66.0398 108.749 66.3729 108.749 66.85V72.0854C108.749 72.5268 108.721 72.848 108.667 73.0479C108.582 73.3513 108.412 73.5274 108.158 73.5786V73.6976H110.347V73.5929C110.071 73.55 109.892 73.3644 109.813 73.0337C109.762 72.8338 109.74 72.4923 109.74 72.008V68.1886C110.432 68.1886 110.871 68.235 111.053 68.3302C111.399 68.5123 111.657 68.9751 111.827 69.7199L111.901 69.695L111.547 66.7846L111.465 66.8227C111.465 67.1523 111.391 67.3688 111.246 67.4723C111.15 67.5437 110.974 67.577 110.72 67.577H109.748C109.748 67.6472 109.745 67.5033 109.74 67.1487V66.7715C109.74 66.3729 109.795 66.1016 109.907 65.9588C110.02 65.8161 110.248 65.7435 110.593 65.7435C111.132 65.7435 111.618 65.9232 112.052 66.2825C112.483 66.6418 112.765 67.1082 112.892 67.6794L112.964 67.6544L112.556 64.9784C112.484 65.0903 112.325 65.1474 112.071 65.1474ZM104.794 69.6295C104.695 69.8532 104.504 69.9662 104.221 69.9662H103.183C103.084 69.9662 102.986 69.9329 102.887 69.8627L102.497 71.3191L102.571 71.3179C102.645 71.1525 102.744 71.049 102.867 71.005C102.923 70.9883 103.049 70.98 103.247 70.98H104.182C104.294 70.98 104.392 71.0145 104.479 71.0835L104.869 69.6283H104.794V69.6295ZM99.5801 67.5889L99.6621 67.5509L99.2165 64.9784C99.1547 65.0903 99.0347 65.1474 98.8529 65.1474H95.0197C94.8379 65.1474 94.7167 65.0903 94.6561 64.9784L94.2117 67.5509L94.2925 67.5889C94.6133 66.4122 95.3286 65.822 96.436 65.822V72.0854C96.436 72.5446 96.4123 72.873 96.3636 73.0729C96.2792 73.4108 96.1069 73.5786 95.8455 73.5786V73.6976H98.0247V73.5786C97.7526 73.5786 97.5767 73.4025 97.4995 73.0479C97.4567 72.8576 97.4354 72.5101 97.4354 72.008V65.8232C98.5452 65.822 99.2581 66.4122 99.5801 67.5889ZM92.8773 65.1474H88.9894V65.2652C89.2508 65.3259 89.4231 65.521 89.5074 65.8482C89.5561 66.0398 89.5799 66.3729 89.5799 66.85V72.0854C89.5799 72.5351 89.5526 72.8564 89.4991 73.0479C89.4136 73.3406 89.2448 73.5191 88.9894 73.5786V73.6976H93.1589C93.3585 73.6976 93.4916 73.7535 93.5581 73.8666L94.3305 70.6314L94.2402 70.5921C93.671 72.2638 92.762 73.0991 91.5144 73.0991C91.1211 73.0991 90.8668 73.017 90.7515 72.8528C90.6363 72.6874 90.5792 72.2924 90.5792 71.6701V68.1874C91.2458 68.1874 91.6784 68.2398 91.878 68.3433C92.2416 68.5337 92.4982 68.9882 92.6503 69.7069L92.7228 69.6688L92.3687 66.7596L92.2867 66.7965C92.2867 67.1344 92.1988 67.3617 92.0229 67.4723C91.9148 67.5437 91.7211 67.577 91.4419 67.577H90.5792C90.5792 66.762 90.5947 66.3039 90.6244 66.1992C90.7099 65.8958 90.9725 65.7447 91.4145 65.7447C91.9481 65.7447 92.4198 65.9148 92.8321 66.2516C93.2432 66.5895 93.5344 67.0535 93.7043 67.6425L93.7768 67.6044L93.368 65.0046C93.2825 65.0998 93.1197 65.1474 92.8773 65.1474ZM88.6816 67.5889L88.7636 67.5509L88.318 64.9784C88.2574 65.0903 88.1362 65.1474 87.9544 65.1474H84.1224C83.9406 65.1474 83.8194 65.0903 83.7588 64.9784L83.3132 67.5509L83.3952 67.5889C83.716 66.4122 84.4301 65.822 85.5387 65.822V72.0854C85.5387 72.5446 85.5149 72.873 85.4662 73.0729C85.3807 73.4108 85.2084 73.5786 84.9482 73.5786V73.6976H87.1286V73.5786C86.8553 73.5786 86.6794 73.4025 86.601 73.0479C86.5594 72.8576 86.538 72.5101 86.538 72.008V65.8232C87.6455 65.822 88.3608 66.4122 88.6816 67.5889ZM80.2986 65.7958C80.383 65.4746 80.5553 65.2973 80.8155 65.264V65.1462H78.6363V65.264C78.9024 65.3163 79.0747 65.5055 79.1531 65.8339C79.2019 66.0338 79.2268 66.3717 79.2268 66.8489V72.0842C79.2268 72.5256 79.1995 72.8469 79.1448 73.0467C79.0593 73.3502 78.8905 73.5263 78.6363 73.5774V73.6964H82.2604C82.5075 73.6964 82.6834 73.7523 82.7868 73.8654L83.5674 70.6302L83.4866 70.5778C83.2252 71.375 82.8688 71.9925 82.4148 72.4364C81.9598 72.8778 81.4548 73.0991 80.8975 73.0991C80.4495 73.0991 80.2249 72.8004 80.2249 72.2031V66.7596C80.2249 66.298 80.2499 65.9791 80.2986 65.7958ZM72.8959 65.8101C72.9387 65.9898 72.9601 66.3325 72.9601 66.8346V71.0442C72.9601 72.9242 73.7407 73.8642 75.3033 73.8642C76.2539 73.8642 76.9228 73.4525 77.3102 72.6291C77.6001 72.0068 77.7463 71.0835 77.7463 69.8615C77.7463 69.62 77.732 69.1357 77.7047 68.4064C77.6774 67.6794 77.6643 67.2332 77.6643 67.069C77.6643 65.9339 77.8734 65.3318 78.2905 65.2628V65.145H76.52V65.2628C76.7981 65.2628 76.9775 65.4389 77.0559 65.7946C77.0916 65.96 77.1106 66.3063 77.1106 66.8334V70.8872C77.1106 72.3769 76.5497 73.1217 75.4304 73.1217C74.4489 73.1217 73.9582 72.3947 73.9582 70.9395V66.756C73.9582 66.2623 73.9796 65.9291 74.0223 65.7554C74.1008 65.4258 74.2766 65.2616 74.5487 65.2616V65.1438H72.36L72.3695 65.2616C72.6357 65.264 72.8115 65.446 72.8959 65.8101ZM66.8383 73.0467C66.7527 73.3394 66.584 73.5179 66.3297 73.5774V73.6964H68.5089V73.5786C68.2428 73.5453 68.0669 73.3549 67.9825 73.0087C67.9398 72.835 67.9184 72.4994 67.9184 71.9973V69.175L68.7905 68.1886C69.2242 68.8692 69.6223 69.6355 69.9835 70.4814C70.4422 71.5511 70.6703 72.4161 70.6703 73.0729C70.6703 73.3668 70.5646 73.5346 70.3531 73.5786V73.6964H72.3505V73.5774C72.133 73.5346 71.9489 73.3049 71.7968 72.8897C71.6577 72.3781 71.5544 71.9973 71.4878 71.7463C70.9615 69.8853 70.2925 68.4159 69.4809 67.3414C70.1226 66.5633 70.4862 66.1254 70.5705 66.0291C71.0304 65.5186 71.4605 65.2628 71.8609 65.2628V65.145H69.6722V65.2628L69.8623 65.3389C69.8992 65.4175 69.917 65.4948 69.917 65.5733C69.917 65.8327 69.6116 66.3396 68.9997 67.094L67.9184 68.3409V66.756C67.9184 66.2873 67.9433 65.9636 67.9908 65.7816C68.0705 65.4698 68.2428 65.2961 68.5089 65.2616V65.1438H66.3297V65.2616C66.5959 65.314 66.7682 65.5079 66.8466 65.8446C66.8953 66.0445 66.9203 66.3777 66.9203 66.8465V72.0818C66.9203 72.5351 66.8929 72.8564 66.8383 73.0467ZM62.2434 69.2404L63.068 66.129L64.0756 70.2792C63.6158 69.5867 63.005 69.2404 62.2434 69.2404ZM63.7405 70.6433C64.3156 71.2061 64.6032 71.8819 64.6032 72.6696C64.6032 73.1812 64.4559 73.4834 64.1588 73.5786V73.6976H66.2204V73.5786C65.9839 73.4941 65.7997 73.1764 65.6667 72.6303L64.1137 66.2385C64.059 66.0148 64.0317 65.8446 64.0317 65.7316C64.0317 65.4889 64.1196 65.333 64.2954 65.264V65.1462H62.279V65.264C62.4668 65.3247 62.5606 65.4627 62.5606 65.6792C62.5606 65.8351 62.5143 66.0874 62.424 66.4336L60.9613 71.9568C60.8341 72.4316 60.7319 72.7624 60.6523 72.942C60.4955 73.299 60.3042 73.5108 60.0808 73.5786V73.6976H61.9332V73.5786C61.7942 73.5786 61.6766 73.512 61.5791 73.3775C61.4829 73.2443 61.4342 73.0765 61.4342 72.8778C61.4342 72.4792 61.5221 71.9604 61.6968 71.3179C61.7883 70.9812 61.9249 70.5029 62.1055 69.8889C62.6806 69.8889 63.226 70.1412 63.7405 70.6433ZM59.3453 65.1474H55.43V65.2652C55.6902 65.3259 55.8637 65.521 55.9481 65.8482C55.9968 66.0398 56.0206 66.3729 56.0206 66.85V72.0854C56.0206 72.5268 55.9933 72.848 55.9386 73.0479C55.8542 73.3513 55.6843 73.5274 55.43 73.5786V73.6976H57.6188V73.5929C57.3431 73.55 57.1648 73.3644 57.084 73.0337C57.0353 72.8338 57.0104 72.4923 57.0104 72.008V68.1886C57.7043 68.1886 58.1416 68.235 58.3246 68.3302C58.6703 68.5123 58.9294 68.9751 59.0993 69.7199L59.173 69.695L58.8177 66.7846L58.7369 66.8227C58.7369 67.1523 58.6632 67.3688 58.5182 67.4723C58.422 67.5437 58.2461 67.577 57.9919 67.577H57.0199C57.0199 67.6472 57.0163 67.5033 57.0104 67.1487V66.7715C57.0104 66.3729 57.0662 66.1016 57.1791 65.9588C57.2908 65.8161 57.5189 65.7435 57.8647 65.7435C58.403 65.7435 58.889 65.9232 59.3227 66.2825C59.7552 66.6418 60.0356 67.1082 60.1628 67.6794L60.2353 67.6544L59.8265 64.9784C59.76 65.0903 59.5996 65.1474 59.3453 65.1474ZM51.289 65.8101C51.3734 65.5055 51.5433 65.3247 51.7976 65.264V65.1462H49.6172V65.264C49.8845 65.3163 50.0568 65.5055 50.1352 65.8339C50.184 66.0338 50.2077 66.3717 50.2077 66.8489V72.0842C50.2077 72.5256 50.1804 72.8469 50.1257 73.0467C50.0414 73.3585 49.8715 73.5346 49.6172 73.5774V73.6964H51.7976V73.5774C51.5314 73.5263 51.3579 73.3359 51.2795 73.0075C51.2308 72.8088 51.207 72.4709 51.207 71.9926V66.7715C51.207 66.3206 51.2343 65.9993 51.289 65.8101ZM43.9505 73.0467C43.8649 73.3394 43.6962 73.5179 43.4419 73.5774V73.6964H45.6211V73.5786C45.355 73.5453 45.1791 73.3549 45.0947 73.0087C45.052 72.835 45.0306 72.4994 45.0306 71.9973V69.175L45.9027 68.1886C46.3364 68.8692 46.7345 69.6355 47.0957 70.4814C47.5544 71.5511 47.7825 72.4161 47.7825 73.0729C47.7825 73.3668 47.6768 73.5346 47.4653 73.5786V73.6964H49.4639V73.5774C49.2453 73.5346 49.0611 73.3049 48.909 72.8897C48.7699 72.3781 48.6666 71.9973 48.6 71.7463C48.0736 69.8853 47.4047 68.4159 46.5931 67.3414C47.2347 66.5633 47.5984 66.1254 47.6827 66.0291C48.1438 65.5186 48.5739 65.2628 48.9732 65.2628V65.145H46.7844V65.2628L46.9745 65.3389C47.0114 65.4175 47.0292 65.4948 47.0292 65.5733C47.0292 65.8327 46.7238 66.3396 46.1119 67.094L45.0306 68.3409V66.756C45.0306 66.2873 45.0555 65.9636 45.1042 65.7816C45.1827 65.4698 45.355 65.2961 45.6211 65.2616V65.1438H43.4419V65.2616C43.7081 65.314 43.8804 65.5079 43.9588 65.8446C44.0075 66.0445 44.0324 66.3777 44.0324 66.8465V72.0818C44.0324 72.5351 44.0051 72.8564 43.9505 73.0467ZM41.6251 65.264C41.5288 65.264 41.3043 65.2164 40.9526 65.1212C40.602 65.026 40.3715 64.9784 40.2634 64.9784C39.6574 64.9784 39.1595 65.1724 38.7686 65.5626C38.3776 65.9517 38.1828 66.4681 38.1828 67.1094C38.1828 67.9304 38.5155 68.542 39.1821 68.9406C40.0115 69.3047 40.6317 69.5772 41.0441 69.7592C41.7095 70.0817 42.0434 70.5992 42.0434 71.3191C42.0434 71.8391 41.8734 72.2686 41.5348 72.6065C41.195 72.942 40.7898 73.1122 40.3169 73.1122C39.7786 73.1122 39.2985 72.8683 38.8779 72.3781C38.4573 71.889 38.159 71.2287 37.9831 70.397L37.9011 70.4362L38.4287 73.6833C38.525 73.5274 38.6283 73.4501 38.7365 73.4501C38.8517 73.4501 39.1227 73.5203 39.5504 73.6583C39.977 73.7963 40.2539 73.8666 40.381 73.8666C41.0535 73.8666 41.637 73.5976 42.1337 73.061C42.6791 72.4721 42.9511 71.7141 42.9511 70.7872C42.9511 69.8258 42.6185 69.0941 41.9519 68.5908C41.7095 68.4087 41.0892 68.122 40.0899 67.7329C39.4245 67.4723 39.0906 67.1392 39.0906 66.7322C39.0906 66.4122 39.1999 66.1516 39.4185 65.9529C39.636 65.753 39.9081 65.6543 40.2361 65.6543C40.684 65.6543 41.0951 65.8375 41.4706 66.2075C41.8461 66.5752 42.104 67.0535 42.243 67.6425L42.3155 67.6163L41.9519 65.0308C41.8616 65.1855 41.7522 65.264 41.6251 65.264ZM34.8949 66.9655C34.1558 66.0992 33.7875 65.5888 33.7875 65.4329C33.7875 65.3378 33.8504 65.2818 33.9776 65.264V65.1462H31.5893V65.264C31.8554 65.3163 32.0277 65.5055 32.1073 65.8339C32.1549 66.0338 32.1798 66.3717 32.1798 66.8489V72.0842C32.1798 72.5256 32.1525 72.8469 32.0978 73.0467C32.0123 73.3502 31.8435 73.5263 31.5893 73.5774V73.6964H33.3597V73.5774C33.0876 73.5441 32.9118 73.3573 32.8333 73.0194C32.7906 72.8469 32.7692 72.5042 32.7692 71.9937V66.1897L35.64 69.6022C35.8752 69.8794 36.0154 70.0793 36.0582 70.2006C36.1117 70.3482 36.139 70.6337 36.139 71.0573V72.0842C36.139 72.5434 36.1117 72.8683 36.0582 73.0586C35.9726 73.3621 35.7968 73.5334 35.5306 73.5774V73.6964H37.3201V73.5774C37.054 73.5263 36.8781 73.3359 36.7937 73.0075C36.751 72.8338 36.7296 72.4959 36.7296 71.9926V66.7584C36.7296 66.3158 36.7569 65.9946 36.8115 65.7958C36.8959 65.4924 37.0658 65.3163 37.3201 65.264V65.1462H35.5306V65.264C35.8027 65.3056 35.9822 65.496 36.0665 65.8339C36.1153 66.0255 36.139 66.3634 36.139 66.8489V68.3957C35.5092 67.6758 35.0945 67.1999 34.8949 66.9655ZM30.3998 65.8101C30.4842 65.5055 30.6541 65.3247 30.9084 65.264V65.1462H28.728V65.264C28.9941 65.3163 29.1676 65.5055 29.246 65.8339C29.2936 66.0338 29.3185 66.3717 29.3185 66.8489V72.0842C29.3185 72.5256 29.2912 72.8469 29.2365 73.0467C29.1522 73.3585 28.9822 73.5346 28.728 73.5774V73.6964H30.9084V73.5774C30.641 73.5263 30.4687 73.3359 30.3903 73.0075C30.3416 72.8088 30.3178 72.4709 30.3178 71.9926V66.7715C30.3178 66.3206 30.3452 65.9993 30.3998 65.8101ZM28.0828 71.1882C27.6407 72.5399 26.9718 73.2157 26.0758 73.2157C25.3011 73.2157 24.6678 72.8088 24.1782 71.9937C23.6875 71.1799 23.4415 70.1495 23.4415 68.9013C23.4415 67.9316 23.6316 67.1475 24.0095 66.5502C24.3886 65.9517 24.8888 65.6531 25.5126 65.6531C25.9546 65.6531 26.3574 65.8077 26.721 66.1147C27.0846 66.4229 27.3449 66.8346 27.5017 67.3557L27.5742 67.3165L27.1571 64.8606C27.0965 65.0427 26.9777 65.1343 26.803 65.1343C26.6937 65.1343 26.4466 65.1057 26.0628 65.0498C25.6778 64.9927 25.4282 64.9665 25.313 64.9665C24.4408 64.9665 23.7291 65.3378 23.1789 66.0826C22.6276 66.8274 22.3519 67.7972 22.3519 68.993C22.3519 70.4481 22.6811 71.6308 23.3381 72.5387C23.9941 73.4489 24.8436 73.9022 25.8857 73.9022C25.9879 73.9022 26.2232 73.8844 26.5892 73.8511C26.9551 73.8166 27.1904 73.7987 27.2926 73.7987C27.3663 73.7987 27.4257 73.8166 27.4744 73.8511L28.1743 71.2394L28.0828 71.1882ZM21.1352 65.8101C21.2195 65.5055 21.3894 65.3247 21.6437 65.264V65.1462H19.4645V65.264C19.7307 65.3163 19.9029 65.5055 19.9814 65.8339C20.0301 66.0338 20.0539 66.3717 20.0539 66.8489V72.0842C20.0539 72.5256 20.0265 72.8469 19.9731 73.0467C19.8875 73.3585 19.7188 73.5346 19.4645 73.5774V73.6964H21.6437V73.5774C21.3776 73.5263 21.2053 73.3359 21.1257 73.0075C21.0781 72.8088 21.0532 72.4709 21.0532 71.9926V66.7715C21.0532 66.3206 21.0805 65.9993 21.1352 65.8101ZM14.569 66.1088C14.6593 65.866 14.8589 65.7435 15.1678 65.7435C15.901 65.7435 16.4951 66.1219 16.9526 66.8798C17.41 67.6389 17.6382 68.611 17.6382 69.7973C17.6382 70.8277 17.4457 71.6356 17.0619 72.2198C16.6769 72.8052 16.1303 73.0967 15.4221 73.0967C14.9682 73.0967 14.6901 72.9718 14.5868 72.7207C14.5202 72.5649 14.487 72.1318 14.487 71.4214V67.1082C14.487 66.5883 14.5143 66.2563 14.569 66.1088ZM12.8971 65.264C13.1633 65.3163 13.3368 65.5055 13.4152 65.8339C13.4639 66.0338 13.4877 66.3717 13.4877 66.8489V72.0842C13.4877 72.5339 13.4603 72.8552 13.4057 73.0467C13.3213 73.3394 13.1514 73.5179 12.8971 73.5774V73.6964H15.3948C15.964 73.6964 16.4214 73.644 16.766 73.5405C17.3292 73.3668 17.7974 72.9171 18.1693 72.1877C18.5424 71.4619 18.729 70.6326 18.729 69.7057C18.729 68.329 18.3879 67.2248 17.7071 66.3931C17.025 65.5626 16.1434 65.1462 15.0585 65.1462H12.8971V65.264V65.264ZM11.1349 65.1474H7.24823V65.2652C7.50845 65.3259 7.68075 65.521 7.7663 65.8482C7.81383 66.0398 7.83879 66.3729 7.83879 66.85V72.0854C7.83879 72.5351 7.81146 72.8564 7.7568 73.0479C7.67244 73.3406 7.50251 73.5191 7.24823 73.5786V73.6976H11.4166C11.6174 73.6976 11.7505 73.7535 11.817 73.8666L12.5882 70.6314L12.4979 70.5921C11.9287 72.2638 11.0209 73.0991 9.77323 73.0991C9.37992 73.0991 9.12564 73.017 9.01038 72.8528C8.89512 72.6874 8.8381 72.2924 8.8381 71.6701V68.1874C9.50351 68.1874 9.93602 68.2398 10.1368 68.3433C10.4992 68.5337 10.7571 68.9882 10.908 69.7069L10.9805 69.6688L10.6264 66.7596L10.5456 66.7965C10.5456 67.1344 10.4577 67.3617 10.2818 67.4723C10.1725 67.5437 9.97879 67.577 9.70074 67.577H8.8381C8.8381 66.762 8.85235 66.3039 8.88325 66.1992C8.96761 65.8958 9.23141 65.7447 9.67344 65.7447C10.2058 65.7447 10.6787 65.9148 11.0898 66.2516C11.5021 66.5895 11.7921 67.0535 11.962 67.6425L12.0345 67.6044L11.6257 65.0046C11.5413 65.0998 11.3773 65.1474 11.1349 65.1474ZM5.00484 66.0457V72.0842C5.00484 72.5173 4.97751 72.8373 4.92285 73.0467C4.83848 73.3585 4.66859 73.5346 4.41431 73.5774V73.6964H6.59471V73.5774C6.32736 73.5263 6.15506 73.3311 6.07664 72.9932C6.02792 72.7945 6.00415 72.4613 6.00415 71.9926V66.7584C6.00415 66.3075 6.03148 65.9874 6.08614 65.7958C6.1705 65.5008 6.34043 65.3247 6.59471 65.264V65.1462H4.40597V65.264C4.52004 65.2973 4.57829 65.3889 4.57829 65.5365C4.57829 65.753 4.3751 66.3253 3.96872 67.251C3.78811 67.6591 3.56708 68.1529 3.30567 68.7324C3.02168 68.022 2.80661 67.489 2.66046 67.1344C2.31587 66.2599 2.14358 65.7221 2.14358 65.5234C2.14358 65.3853 2.19468 65.2985 2.29806 65.264V65.1462H0V65.264C0.266165 65.3163 0.439653 65.5055 0.518076 65.8339C0.566794 66.0338 0.590546 66.3717 0.590546 66.8489V72.0842C0.590546 72.5256 0.563216 72.8469 0.508558 73.0467C0.424193 73.3502 0.254282 73.5263 0 73.5774V73.6964H1.77166V73.5774C1.49836 73.5441 1.32369 73.3573 1.24408 73.0194C1.20249 72.8457 1.18111 72.5042 1.18111 71.9926V66.0421L3.01693 70.6564L5.00484 66.0457Z" fill="white" fill-opacity="0.75"/>
</svg>
